<svg width="142" height="32" viewBox="0 0 142 32" fill="none" xmlns="http://www.w3.org/2000/svg">
<path d="M16.462 31.9903C25.0889 31.9903 32.0824 24.8312 32.0824 16C32.0824 7.1688 25.0889 0.00970459 16.462 0.00970459C7.83514 0.00970459 0.841675 7.1688 0.841675 16C0.841675 24.8312 7.83514 31.9903 16.462 31.9903Z" fill="#9E8CFC"/>
<path d="M11.5497 30.179C12.1887 30.3997 14.3346 31.1058 14.4259 30.4154C14.4754 30.0365 13.3429 29.6483 11.8096 28.8264C9.62893 27.6602 7.63397 26.1688 5.89166 24.4022C3.34854 21.879 1.88622 18.4464 1.81948 14.8431C1.68952 10.0056 3.55851 6.09492 6.63276 3.57129C2.87333 6.50737 0.622496 11.002 0.505922 15.8059C0.414639 19.3048 1.38163 22.2527 3.19802 24.936C3.76205 25.6732 4.42137 26.3303 5.1583 26.8898C6.89888 28.2221 9.44399 29.4542 11.5497 30.1774" fill="white"/>
<path d="M32.2974 12.3351C31.3289 7.72621 28.3181 4.49966 24.2908 2.22025C27.3774 4.43861 31.7095 9.15554 29.1489 13.3167C26.9828 16.6497 21.7224 15.9969 18.8369 14.4126C15.4146 12.5339 11.132 8.30702 15.3558 4.1756C18.0943 1.50168 26.8049 4.49966 25.2717 8.49645C24.3774 10.8213 20.8962 10.3046 19.3305 9.16806C18.1763 8.32894 17.2047 6.88709 17.7199 5.39827C17.8839 4.92079 17.8607 4.18029 17.1938 4.7251C16.7018 5.13213 16.4465 5.80218 16.3599 6.42839C15.6312 11.64 24.8075 15.6807 27.5306 10.6381C28.9431 8.02053 26.6533 4.21943 23.7709 2.6633C21.6048 1.48915 19.3506 0.664118 16.5873 0.864506C12.1686 1.17761 8.46154 3.97991 7.99584 8.54812C7.53168 13.0881 10.5317 17.1742 14.0639 19.618C17.7771 22.1854 22.7683 23.8778 27.3356 22.3467C31.4294 20.9737 33.1205 16.2192 32.2974 12.3383" fill="white"/>
<path d="M41.39 22V9.4H43.19V20.434H50.012V22H41.39ZM51.8255 22V12.46H53.5535V22H51.8255ZM52.6895 10.624C52.3535 10.624 52.0715 10.516 51.8435 10.3C51.6275 10.084 51.5195 9.82 51.5195 9.508C51.5195 9.184 51.6275 8.914 51.8435 8.698C52.0715 8.482 52.3535 8.374 52.6895 8.374C53.0255 8.374 53.3015 8.482 53.5175 8.698C53.7455 8.902 53.8595 9.16 53.8595 9.472C53.8595 9.796 53.7515 10.072 53.5355 10.3C53.3195 10.516 53.0375 10.624 52.6895 10.624ZM61.0288 25.6C60.1528 25.6 59.3008 25.474 58.4728 25.222C57.6568 24.982 56.9908 24.634 56.4748 24.178L57.3028 22.846C57.7468 23.23 58.2928 23.53 58.9408 23.746C59.5888 23.974 60.2668 24.088 60.9748 24.088C62.1028 24.088 62.9308 23.824 63.4588 23.296C63.9868 22.768 64.2508 21.964 64.2508 20.884V18.868L64.4308 16.978L64.3408 15.07V12.46H65.9788V20.704C65.9788 22.384 65.5588 23.62 64.7188 24.412C63.8788 25.204 62.6488 25.6 61.0288 25.6ZM60.8128 21.604C59.8888 21.604 59.0608 21.412 58.3288 21.028C57.6088 20.632 57.0328 20.086 56.6008 19.39C56.1808 18.694 55.9708 17.89 55.9708 16.978C55.9708 16.054 56.1808 15.25 56.6008 14.566C57.0328 13.87 57.6088 13.33 58.3288 12.946C59.0608 12.562 59.8888 12.37 60.8128 12.37C61.6288 12.37 62.3728 12.538 63.0448 12.874C63.7168 13.198 64.2508 13.702 64.6468 14.386C65.0548 15.07 65.2588 15.934 65.2588 16.978C65.2588 18.01 65.0548 18.868 64.6468 19.552C64.2508 20.236 63.7168 20.752 63.0448 21.1C62.3728 21.436 61.6288 21.604 60.8128 21.604ZM61.0108 20.092C61.6468 20.092 62.2108 19.96 62.7028 19.696C63.1948 19.432 63.5788 19.066 63.8548 18.598C64.1428 18.13 64.2868 17.59 64.2868 16.978C64.2868 16.366 64.1428 15.826 63.8548 15.358C63.5788 14.89 63.1948 14.53 62.7028 14.278C62.2108 14.014 61.6468 13.882 61.0108 13.882C60.3748 13.882 59.8048 14.014 59.3008 14.278C58.8088 14.53 58.4188 14.89 58.1308 15.358C57.8548 15.826 57.7168 16.366 57.7168 16.978C57.7168 17.59 57.8548 18.13 58.1308 18.598C58.4188 19.066 58.8088 19.432 59.3008 19.696C59.8048 19.96 60.3748 20.092 61.0108 20.092ZM74.3746 12.37C75.1546 12.37 75.8386 12.52 76.4266 12.82C77.0266 13.12 77.4946 13.576 77.8306 14.188C78.1666 14.8 78.3346 15.574 78.3346 16.51V22H76.6066V16.708C76.6066 15.784 76.3786 15.088 75.9226 14.62C75.4786 14.152 74.8486 13.918 74.0326 13.918C73.4206 13.918 72.8866 14.038 72.4306 14.278C71.9746 14.518 71.6206 14.872 71.3686 15.34C71.1286 15.808 71.0086 16.39 71.0086 17.086V22H69.2806V8.644H71.0086V15.034L70.6666 14.35C70.9786 13.726 71.4586 13.24 72.1066 12.892C72.7546 12.544 73.5106 12.37 74.3746 12.37ZM84.8085 22.108C83.8485 22.108 83.1045 21.85 82.5765 21.334C82.0485 20.818 81.7845 20.08 81.7845 19.12V10.372H83.5125V19.048C83.5125 19.564 83.6385 19.96 83.8905 20.236C84.1545 20.512 84.5265 20.65 85.0065 20.65C85.5465 20.65 85.9965 20.5 86.3565 20.2L86.8965 21.442C86.6325 21.67 86.3145 21.838 85.9425 21.946C85.5825 22.054 85.2045 22.108 84.8085 22.108ZM80.1645 13.882V12.46H86.2485V13.882H80.1645ZM89.2377 22V9.4H94.8897C96.3417 9.4 97.4577 9.694 98.2377 10.282C99.0177 10.858 99.4077 11.65 99.4077 12.658C99.4077 13.342 99.2517 13.918 98.9397 14.386C98.6397 14.854 98.2317 15.214 97.7157 15.466C97.1997 15.718 96.6417 15.844 96.0417 15.844L96.3657 15.304C97.0857 15.304 97.7217 15.43 98.2737 15.682C98.8257 15.934 99.2637 16.306 99.5877 16.798C99.9117 17.278 100.074 17.878 100.074 18.598C100.074 19.678 99.6657 20.518 98.8497 21.118C98.0457 21.706 96.8457 22 95.2497 22H89.2377ZM91.0377 20.542H95.1777C96.1737 20.542 96.9357 20.374 97.4637 20.038C97.9917 19.702 98.2557 19.174 98.2557 18.454C98.2557 17.722 97.9917 17.188 97.4637 16.852C96.9357 16.516 96.1737 16.348 95.1777 16.348H90.8757V14.89H94.7277C95.6397 14.89 96.3477 14.722 96.8517 14.386C97.3557 14.05 97.6077 13.546 97.6077 12.874C97.6077 12.202 97.3557 11.698 96.8517 11.362C96.3477 11.026 95.6397 10.858 94.7277 10.858H91.0377V20.542ZM106.695 22.108C105.735 22.108 104.883 21.898 104.139 21.478C103.395 21.058 102.807 20.482 102.375 19.75C101.943 19.006 101.727 18.166 101.727 17.23C101.727 16.282 101.943 15.442 102.375 14.71C102.807 13.978 103.395 13.408 104.139 13C104.883 12.58 105.735 12.37 106.695 12.37C107.643 12.37 108.489 12.58 109.233 13C109.989 13.408 110.577 13.978 110.997 14.71C111.429 15.43 111.645 16.27 111.645 17.23C111.645 18.178 111.429 19.018 110.997 19.75C110.577 20.482 109.989 21.058 109.233 21.478C108.489 21.898 107.643 22.108 106.695 22.108ZM106.695 20.596C107.307 20.596 107.853 20.458 108.333 20.182C108.825 19.906 109.209 19.516 109.485 19.012C109.761 18.496 109.899 17.902 109.899 17.23C109.899 16.546 109.761 15.958 109.485 15.466C109.209 14.962 108.825 14.572 108.333 14.296C107.853 14.02 107.307 13.882 106.695 13.882C106.083 13.882 105.537 14.02 105.057 14.296C104.577 14.572 104.193 14.962 103.905 15.466C103.617 15.958 103.473 16.546 103.473 17.23C103.473 17.902 103.617 18.496 103.905 19.012C104.193 19.516 104.577 19.906 105.057 20.182C105.537 20.458 106.083 20.596 106.695 20.596ZM119.869 22V19.984L119.779 19.606V16.168C119.779 15.436 119.563 14.872 119.131 14.476C118.711 14.068 118.075 13.864 117.223 13.864C116.659 13.864 116.107 13.96 115.567 14.152C115.027 14.332 114.571 14.578 114.199 14.89L113.479 13.594C113.971 13.198 114.559 12.898 115.243 12.694C115.939 12.478 116.665 12.37 117.421 12.37C118.729 12.37 119.737 12.688 120.445 13.324C121.153 13.96 121.507 14.932 121.507 16.24V22H119.869ZM116.737 22.108C116.029 22.108 115.405 21.988 114.865 21.748C114.337 21.508 113.929 21.178 113.641 20.758C113.353 20.326 113.209 19.84 113.209 19.3C113.209 18.784 113.329 18.316 113.569 17.896C113.821 17.476 114.223 17.14 114.775 16.888C115.339 16.636 116.095 16.51 117.043 16.51H120.067V17.752H117.115C116.251 17.752 115.669 17.896 115.369 18.184C115.069 18.472 114.919 18.82 114.919 19.228C114.919 19.696 115.105 20.074 115.477 20.362C115.849 20.638 116.365 20.776 117.025 20.776C117.673 20.776 118.237 20.632 118.717 20.344C119.209 20.056 119.563 19.636 119.779 19.084L120.121 20.272C119.893 20.836 119.491 21.286 118.915 21.622C118.339 21.946 117.613 22.108 116.737 22.108ZM124.704 22V12.46H126.36V15.052L126.198 14.404C126.462 13.744 126.906 13.24 127.53 12.892C128.154 12.544 128.922 12.37 129.834 12.37V14.044C129.762 14.032 129.69 14.026 129.618 14.026C129.558 14.026 129.498 14.026 129.438 14.026C128.514 14.026 127.782 14.302 127.242 14.854C126.702 15.406 126.432 16.204 126.432 17.248V22H124.704ZM135.818 22.108C134.894 22.108 134.066 21.904 133.334 21.496C132.614 21.088 132.044 20.518 131.624 19.786C131.204 19.054 130.994 18.202 130.994 17.23C130.994 16.258 131.204 15.412 131.624 14.692C132.044 13.96 132.614 13.39 133.334 12.982C134.066 12.574 134.894 12.37 135.818 12.37C136.622 12.37 137.348 12.55 137.996 12.91C138.644 13.27 139.16 13.81 139.544 14.53C139.94 15.25 140.138 16.15 140.138 17.23C140.138 18.31 139.946 19.21 139.562 19.93C139.19 20.65 138.68 21.196 138.032 21.568C137.384 21.928 136.646 22.108 135.818 22.108ZM135.962 20.596C136.562 20.596 137.102 20.458 137.582 20.182C138.074 19.906 138.458 19.516 138.734 19.012C139.022 18.496 139.166 17.902 139.166 17.23C139.166 16.546 139.022 15.958 138.734 15.466C138.458 14.962 138.074 14.572 137.582 14.296C137.102 14.02 136.562 13.882 135.962 13.882C135.35 13.882 134.804 14.02 134.324 14.296C133.844 14.572 133.46 14.962 133.172 15.466C132.884 15.958 132.74 16.546 132.74 17.23C132.74 17.902 132.884 18.496 133.172 19.012C133.46 19.516 133.844 19.906 134.324 20.182C134.804 20.458 135.35 20.596 135.962 20.596ZM139.22 22V19.426L139.328 17.212L139.148 14.998V8.644H140.876V22H139.22Z" fill="#392C72"/>
</svg>
