<svg width="570" height="590" viewBox="0 0 570 590" fill="none" xmlns="http://www.w3.org/2000/svg">
<mask id="mask0_36111_354" style="mask-type:luminance" maskUnits="userSpaceOnUse" x="0" y="67" width="570" height="520">
<path fill-rule="evenodd" clip-rule="evenodd" d="M0 67.8826H570V586.157H0V67.8826Z" fill="white"/>
</mask>
<g mask="url(#mask0_36111_354)">
<path fill-rule="evenodd" clip-rule="evenodd" d="M500.545 562.697C485.796 570.912 468.634 576.845 449.718 580.699C437.162 583.235 423.783 584.908 409.856 585.618C358.645 588.509 299.757 579.635 243.008 561.886C230.287 557.93 217.676 553.518 205.284 548.65C113.005 512.747 32.7883 454.125 10.3079 386.173C-30.76 262.134 57.4071 172.934 159.501 91.0864C200.898 57.8708 254.851 62.6377 310.668 90.6808C323.718 97.2225 336.822 105.032 349.927 113.906C399.109 147.325 447.799 195.956 488.921 250.014C569.632 356.152 616.347 498.345 500.545 562.697Z" fill="#FDE6D6"/>
</g>
<path fill-rule="evenodd" clip-rule="evenodd" d="M457.01 163.474C447.496 145.668 444.013 123.133 463.09 115.877C484.396 107.778 518.343 120.875 528.223 150.594C534.538 169.585 532.369 196.096 514.919 206.285C499.989 215.01 468.682 185.312 457.01 163.474Z" fill="#E8E5EA"/>
<path fill-rule="evenodd" clip-rule="evenodd" d="M155.515 72.2565C155.499 72.2565 155.483 72.2565 155.466 72.2565C151.85 72.0233 148.222 71.8965 144.697 71.8762C144.319 71.8762 144.021 71.5922 144.021 71.2423C144.027 70.8924 144.324 70.6084 144.697 70.6084H144.702C148.26 70.6287 151.915 70.7555 155.564 70.9887C155.937 71.0141 156.213 71.3184 156.191 71.6683C156.164 72.003 155.867 72.2565 155.515 72.2565ZM122.389 73.6125C122.057 73.6125 121.764 73.3843 121.715 73.0698C121.661 72.725 121.916 72.4005 122.291 72.3497C125.798 71.873 129.458 71.5181 133.155 71.2899C133.579 71.2239 133.855 71.5333 133.877 71.8832C133.904 72.228 133.622 72.5323 133.247 72.5526C129.583 72.7808 125.961 73.1358 122.486 73.6023C122.454 73.6074 122.421 73.6125 122.389 73.6125ZM176.81 74.8568C176.766 74.8568 176.728 74.8518 176.69 74.8467C173.105 74.2483 169.483 73.7412 165.921 73.3253C165.544 73.2797 165.277 72.9653 165.326 72.6154C165.375 72.2705 165.686 72.0373 166.09 72.0677C169.679 72.4835 173.324 73.0008 176.93 73.5992C177.295 73.66 177.546 73.9897 177.481 74.3345C177.421 74.6388 177.132 74.8568 176.81 74.8568ZM101.106 78.4773C100.811 78.4773 100.537 78.3049 100.442 78.0311C100.325 77.6964 100.531 77.3414 100.9 77.24C104.433 76.2257 108.073 75.3231 111.724 74.5472C112.092 74.466 112.477 74.679 112.561 75.0188C112.65 75.3586 112.416 75.6983 112.042 75.7795C108.425 76.5503 104.813 77.4479 101.318 78.4469C101.246 78.4672 101.179 78.4773 101.106 78.4773ZM198.098 79.3723C198.037 79.3723 197.976 79.3672 197.915 79.352C194.311 78.4595 190.695 77.643 187.163 76.9178C186.786 76.8418 186.553 76.502 186.636 76.1571C186.719 75.8174 187.069 75.5993 187.462 75.6805C191.017 76.4107 194.655 77.2322 198.281 78.1248C198.647 78.2211 198.869 78.566 198.764 78.9057C198.681 79.1846 198.403 79.3723 198.098 79.3723ZM219.382 85.8353C219.302 85.8353 219.223 85.8251 219.144 85.7998C215.604 84.679 211.99 83.609 208.415 82.61C208.042 82.5035 207.833 82.1485 207.951 81.8189C208.065 81.4842 208.466 81.2915 208.834 81.4031C212.425 82.4021 216.056 83.4822 219.613 84.603C219.981 84.7196 220.179 85.0847 220.049 85.4144C219.947 85.673 219.676 85.8353 219.382 85.8353ZM80.7957 85.1246C80.5531 85.1246 80.3159 85.0074 80.1974 84.801C80.0303 84.5148 80.1596 84.163 80.4938 84.0129C83.6688 82.6056 86.9893 81.2874 90.3583 80.1005C90.6925 79.9692 91.0913 80.124 91.2315 80.4242C91.3717 80.7244 91.2045 81.0669 90.8596 81.1889C87.5283 82.3616 84.2455 83.6657 81.1029 85.059C81.0059 85.1012 80.8981 85.1246 80.7957 85.1246ZM239.709 93.2385C239.624 93.2385 239.54 93.2234 239.45 93.188C236.209 91.8743 232.91 90.591 229.638 89.3834C229.299 89.2571 229.13 88.8883 229.262 88.5649C229.4 88.2416 229.781 88.09 230.12 88.2062C233.403 89.4188 236.717 90.7072 239.969 92.0259C240.307 92.1623 240.461 92.5312 240.323 92.8545C240.212 93.092 239.969 93.2385 239.709 93.2385ZM62.5386 96.2812C62.3347 96.2812 62.1415 96.1997 62.0074 96.0367C61.782 95.7566 61.8357 95.3542 62.1308 95.1403C64.9478 93.0824 67.9258 91.1061 70.9789 89.2775C71.2955 89.0942 71.7086 89.1808 71.9072 89.4762C72.1057 89.7767 72.0091 90.1689 71.6979 90.3523C68.677 92.1656 65.7366 94.1164 62.9464 96.1539C62.8283 96.2405 62.6835 96.2812 62.5386 96.2812ZM259.977 101.352C259.88 101.352 259.777 101.331 259.679 101.281C256.418 99.6566 253.129 98.0757 249.894 96.5769C249.559 96.4182 249.407 96.008 249.564 95.6688C249.721 95.3242 250.122 95.171 250.463 95.3297C253.703 96.834 257.008 98.4258 260.281 100.05C260.617 100.22 260.752 100.63 260.59 100.969C260.471 101.21 260.227 101.352 259.977 101.352ZM46.3333 110.481C46.167 110.481 46.0062 110.432 45.8731 110.326C45.5847 110.109 45.5625 109.728 45.8176 109.477C48.2741 107.071 50.8915 104.731 53.603 102.532C53.8803 102.301 54.3184 102.315 54.579 102.556C54.8452 102.802 54.8285 103.183 54.5457 103.41C51.8729 105.59 49.2834 107.9 46.849 110.278C46.7159 110.413 46.5274 110.481 46.3333 110.481ZM279.235 110.481C279.119 110.481 279.008 110.455 278.897 110.4C275.674 108.76 272.39 107.141 269.145 105.587C268.807 105.425 268.673 105.042 268.851 104.734C269.034 104.426 269.456 104.305 269.788 104.467C273.05 106.031 276.34 107.655 279.574 109.3C279.906 109.471 280.029 109.855 279.84 110.158C279.712 110.364 279.479 110.481 279.235 110.481ZM298.487 120.623C298.362 120.623 298.231 120.595 298.112 120.533C294.871 118.855 291.602 117.211 288.395 115.636C288.054 115.471 287.94 115.108 288.145 114.83C288.338 114.543 288.776 114.453 289.117 114.623C292.329 116.197 295.616 117.852 298.868 119.534C299.198 119.709 299.3 120.071 299.09 120.349C298.959 120.524 298.726 120.623 298.487 120.623ZM33.1057 126.708C32.9863 126.708 32.8721 126.676 32.7631 126.607C32.4621 126.416 32.3635 126.007 32.5503 125.694C34.3772 122.651 36.3442 119.667 38.3838 116.831C38.6018 116.539 39.0066 116.481 39.292 116.693C39.5827 116.911 39.6398 117.325 39.427 117.617C37.4081 120.426 35.4671 123.373 33.6558 126.39C33.5364 126.597 33.3236 126.708 33.1057 126.708ZM315.778 132.794C315.646 132.794 315.513 132.752 315.402 132.68C312.464 130.694 309.5 128.745 306.599 126.879C306.292 126.682 306.207 126.283 306.408 125.983C306.61 125.692 307.018 125.604 307.326 125.796C310.237 127.667 313.207 129.621 316.15 131.607C316.457 131.814 316.531 132.218 316.325 132.509C316.192 132.69 315.985 132.794 315.778 132.794ZM334.014 143.95C333.872 143.95 333.73 143.911 333.605 143.827C330.678 141.832 327.73 139.857 324.837 137.965C324.531 137.763 324.465 137.379 324.684 137.108C324.908 136.827 325.333 136.768 325.639 136.97C328.538 138.862 331.497 140.842 334.429 142.847C334.73 143.049 334.784 143.438 334.56 143.709C334.424 143.867 334.222 143.95 334.014 143.95ZM23.009 144.964C22.9199 144.964 22.8308 144.95 22.7416 144.92C22.3851 144.788 22.218 144.424 22.3684 144.115C23.8279 141.052 25.4155 138.037 27.081 135.161C27.2537 134.856 27.6715 134.734 28.0169 134.891C28.3623 135.043 28.496 135.416 28.3233 135.715C26.6688 138.573 25.0979 141.557 23.6496 144.591C23.5382 144.827 23.282 144.964 23.009 144.964ZM351.235 157.135C351.078 157.135 350.921 157.087 350.787 156.985C347.959 154.738 345.024 152.459 342.062 150.212C341.759 149.981 341.708 149.563 341.95 149.273C342.197 148.984 342.634 148.941 342.932 149.161C345.905 151.413 348.851 153.698 351.684 155.95C351.982 156.186 352.027 156.61 351.78 156.894C351.639 157.055 351.437 157.135 351.235 157.135ZM16.2459 164.235C16.185 164.235 16.1292 164.23 16.0735 164.214C15.7388 164.116 15.5359 163.76 15.6323 163.415C16.5552 160.058 17.5695 156.726 18.6547 153.519C18.7713 153.183 19.1364 152.993 19.461 153.116C19.7906 153.235 19.9681 153.601 19.8566 153.936C18.7764 157.123 17.7672 160.429 16.8544 163.766C16.7783 164.049 16.5197 164.235 16.2459 164.235ZM367.517 170.32C367.355 170.32 367.204 170.264 367.079 170.151C364.511 167.859 361.881 165.561 359.261 163.325C358.99 163.1 358.964 162.691 359.199 162.424C359.433 162.153 359.845 162.138 360.116 162.363C362.746 164.604 365.376 166.907 367.954 169.205C368.22 169.445 368.241 169.85 367.996 170.111C367.866 170.249 367.694 170.32 367.517 170.32ZM10.7025 183.505C10.667 183.505 10.6315 183.5 10.596 183.495C10.2511 183.44 10.0179 183.113 10.0787 182.77C10.6416 179.423 11.2907 176.086 12.0058 172.844C12.0818 172.507 12.4165 172.295 12.7614 172.361C13.1011 172.436 13.3192 172.773 13.2431 173.111C12.5332 176.332 11.8891 179.655 11.3262 182.977C11.2755 183.284 11.0067 183.505 10.7025 183.505ZM383.719 184.52C383.546 184.52 383.373 184.461 383.243 184.338C380.681 182.019 378.066 179.706 375.477 177.466C375.206 177.23 375.195 176.841 375.455 176.595C375.71 176.354 376.143 176.339 376.408 176.575C379.008 178.825 381.629 181.143 384.196 183.466C384.461 183.707 384.461 184.096 384.196 184.338C384.066 184.461 383.893 184.52 383.719 184.52ZM398.898 199.733C398.706 199.733 398.52 199.659 398.379 199.515C395.844 196.892 393.253 194.269 390.673 191.726C390.407 191.466 390.419 191.04 390.695 190.79C390.983 190.54 391.423 190.54 391.694 190.811C394.286 193.36 396.883 195.988 399.423 198.621C399.689 198.893 399.666 199.313 399.373 199.558C399.243 199.675 399.073 199.733 398.898 199.733ZM8.1201 203.79C8.10489 203.79 8.08967 203.79 8.06939 203.79C7.71948 203.76 7.46085 203.462 7.4862 203.123C7.75498 199.77 8.09475 196.422 8.49537 193.178C8.53594 192.839 8.81992 192.61 9.20026 192.635C9.55017 192.675 9.79359 192.984 9.75302 193.327C9.35747 196.556 9.0177 199.884 8.74893 203.218C8.72864 203.541 8.44973 203.79 8.1201 203.79ZM413.147 214.947C412.958 214.947 412.768 214.865 412.636 214.711C410.445 212.111 408.165 209.476 405.853 206.876C405.616 206.61 405.647 206.206 405.926 205.975C406.2 205.74 406.616 205.776 406.853 206.042C409.171 208.647 411.462 211.293 413.658 213.903C413.89 214.174 413.848 214.578 413.563 214.803C413.442 214.901 413.295 214.947 413.147 214.947ZM7.49486 224.075C7.14495 224.07 6.86096 223.793 6.86096 223.451C6.87618 220.129 6.95224 216.787 7.08409 213.514C7.09931 213.177 7.36808 212.895 7.74335 212.92C8.09326 212.935 8.3671 213.222 8.35189 213.563C8.22004 216.821 8.14397 220.148 8.12876 223.456C8.12876 223.798 7.84477 224.075 7.49486 224.075ZM427.311 230.16C427.093 230.16 426.881 230.076 426.747 229.909C424.552 227.254 422.295 224.599 420.038 222.028C419.803 221.757 419.859 221.373 420.167 221.161C420.468 220.954 420.904 220.999 421.144 221.275C423.412 223.856 425.674 226.52 427.875 229.185C428.099 229.461 428.032 229.845 427.724 230.042C427.596 230.126 427.451 230.16 427.311 230.16ZM7.82946 244.359C7.49476 244.359 7.21584 244.102 7.19556 243.775C6.99271 240.418 6.84058 237.07 6.7493 233.842C6.73915 233.5 7.013 233.213 7.36291 233.203H7.38319C7.72296 233.203 8.00695 233.47 8.01709 233.807C8.10837 237.026 8.26051 240.353 8.46335 243.701C8.48364 244.043 8.21487 244.335 7.86495 244.359H7.82946ZM438.509 247.402C438.293 247.402 438.078 247.297 437.952 247.096C436.102 244.17 434.157 241.207 432.176 238.292C431.976 237.991 432.05 237.58 432.349 237.374C432.644 237.169 433.059 237.248 433.264 237.548C435.25 240.474 437.206 243.453 439.061 246.39C439.255 246.701 439.166 247.107 438.861 247.302C438.751 247.371 438.63 247.402 438.509 247.402ZM450.613 264.644C450.359 264.644 450.111 264.522 449.978 264.309C448.178 261.364 446.28 258.389 444.33 255.46C444.134 255.16 444.25 254.774 444.59 254.592C444.925 254.409 445.375 254.515 445.576 254.82C447.532 257.76 449.442 260.75 451.247 263.71C451.438 264.015 451.305 264.406 450.953 264.568C450.849 264.619 450.728 264.644 450.613 264.644ZM10.154 264.644C9.83456 264.644 9.56071 264.41 9.52521 264.092C9.12459 260.746 8.77975 257.399 8.48562 254.167C8.4552 253.824 8.71383 253.521 9.05867 253.491C9.46943 253.456 9.71792 253.715 9.74835 254.053C10.0374 257.28 10.3873 260.611 10.7829 263.953C10.8234 264.291 10.5749 264.599 10.225 264.639C10.1997 264.644 10.1794 264.644 10.154 264.644ZM459.762 282.9C459.493 282.9 459.236 282.763 459.118 282.533C457.639 279.549 456.066 276.556 454.447 273.64C454.279 273.337 454.425 272.969 454.772 272.822C455.113 272.67 455.534 272.798 455.707 273.102C457.337 276.041 458.916 279.045 460.406 282.043C460.557 282.357 460.395 282.714 460.042 282.851C459.952 282.881 459.857 282.9 459.762 282.9ZM13.4548 284.929C13.1506 284.929 12.8818 284.709 12.8311 284.404C12.258 281.058 11.7357 277.721 11.2742 274.485C11.2235 274.145 11.4669 273.825 11.8118 273.78C12.1363 273.725 12.4761 273.965 12.5268 274.31C12.9883 277.536 13.5106 280.863 14.0786 284.199C14.1395 284.539 13.9062 284.859 13.5613 284.919C13.5258 284.924 13.4903 284.929 13.4548 284.929ZM467.714 302.171C467.446 302.171 467.197 301.999 467.111 301.723C466.102 298.481 464.981 295.182 463.774 291.904C463.652 291.565 463.815 291.19 464.144 291.065C464.469 290.919 464.834 291.102 464.961 291.44C466.178 294.739 467.304 298.064 468.318 301.321C468.424 301.665 468.242 302.035 467.907 302.145C467.841 302.166 467.775 302.171 467.714 302.171ZM17.748 305.214C17.4539 305.214 17.1952 305.012 17.1293 304.715C16.4193 301.451 15.7347 298.116 15.1008 294.811C15.0298 294.469 15.258 294.141 15.6029 294.076C15.9376 293.985 16.2773 294.232 16.3433 294.575C16.9772 297.869 17.6567 301.194 18.3667 304.453C18.4427 304.79 18.2247 305.128 17.8798 305.198C17.8393 305.209 17.7936 305.214 17.748 305.214ZM473.246 321.441C472.952 321.441 472.683 321.229 472.627 320.925C471.999 317.697 471.248 314.383 470.391 311.075C470.305 310.735 470.508 310.391 470.847 310.305C471.177 310.218 471.527 310.421 471.618 310.761C472.48 314.089 473.241 317.428 473.87 320.686C473.936 321.026 473.713 321.36 473.368 321.426C473.327 321.436 473.287 321.441 473.246 321.441ZM22.0253 324.484C21.7413 324.484 21.4878 324.291 21.4117 324.006C20.5547 320.72 19.7281 317.419 18.942 314.113C18.8609 313.767 19.0688 313.426 19.4086 313.345C19.7433 313.264 20.0932 313.472 20.1743 313.813C20.9654 317.114 21.7819 320.405 22.6389 323.686C22.7251 324.026 22.5274 324.372 22.1876 324.464C22.1318 324.474 22.076 324.484 22.0253 324.484ZM475.62 341.726C475.285 341.726 475.006 341.467 474.986 341.134C474.814 337.885 474.514 334.562 474.088 331.264C474.043 330.925 474.291 330.612 474.636 330.572C475.017 330.542 475.3 330.771 475.346 331.109C475.772 334.438 476.081 337.791 476.254 341.069C476.274 341.413 476.005 341.706 475.655 341.726H475.62ZM28.3909 344.769C28.1222 344.769 27.8737 344.601 27.7875 344.335L27.6353 343.858C26.6465 340.731 25.6728 337.544 24.7549 334.393C24.6586 334.068 24.8513 333.728 25.191 333.634C25.5409 333.546 25.8807 333.733 25.972 334.058C26.8949 337.2 27.8635 340.381 28.8524 343.503L28.9944 343.971C29.1009 344.296 28.9133 344.636 28.5786 344.739C28.5177 344.759 28.4518 344.769 28.3909 344.769ZM474.929 362.011C474.914 362.011 474.904 362.011 474.888 362.011C474.538 361.986 474.275 361.688 474.3 361.346C474.533 358.1 474.696 354.775 474.772 351.46C474.777 351.117 475.025 350.869 475.421 350.854C475.766 350.859 476.045 351.142 476.04 351.489C475.963 354.824 475.801 358.169 475.563 361.435C475.543 361.763 475.259 362.011 474.929 362.011ZM35.5829 364.039C35.3243 364.039 35.0758 363.873 34.9845 363.603C33.8891 360.326 32.814 357.033 31.7643 353.729C31.6578 353.392 31.8404 353.023 32.1751 352.914C32.5098 352.805 32.8647 352.992 32.9712 353.329C34.021 356.622 35.091 359.91 36.1864 363.182C36.2979 363.52 36.1204 363.889 35.7908 364.008C35.7198 364.029 35.6539 364.039 35.5829 364.039ZM472.383 382.295C472.347 382.295 472.312 382.29 472.271 382.285C471.926 382.22 471.698 381.895 471.759 381.56C472.342 378.336 472.849 375.018 473.27 371.69C473.311 371.344 473.645 371.099 473.975 371.144C474.325 371.189 474.568 371.5 474.528 371.845C474.107 375.198 473.595 378.537 473.006 381.775C472.951 382.08 472.687 382.295 472.383 382.295ZM42.833 383.31C42.5794 383.31 42.336 383.147 42.2447 382.885C41.0479 379.615 39.8765 376.33 38.7253 373.034C38.6036 372.693 38.776 372.315 39.1057 372.189C39.4404 372.073 39.7953 372.247 39.9171 372.588C41.0631 375.878 42.2346 379.158 43.4263 382.418C43.548 382.759 43.3857 383.137 43.0612 383.262C42.9851 383.294 42.909 383.31 42.833 383.31ZM51.0956 402.58C50.8483 402.58 50.6162 402.426 50.5153 402.172C49.2185 398.914 47.9519 395.634 46.7005 392.328C46.5693 391.989 46.7308 391.603 47.0537 391.47C47.3666 391.338 47.74 391.497 47.8712 391.836C49.1175 395.136 50.3891 398.411 51.6759 401.664C51.8121 402.003 51.6607 402.389 51.3378 402.527C51.2571 402.564 51.1763 402.58 51.0956 402.58ZM467.76 402.58C467.704 402.58 467.643 402.575 467.578 402.555C467.243 402.452 467.055 402.094 467.157 401.757C468.12 398.524 469.008 395.209 469.783 391.915C469.87 391.572 470.194 391.363 470.549 391.439C470.889 391.526 471.102 391.869 471.021 392.212C470.235 395.531 469.342 398.867 468.369 402.125C468.287 402.401 468.034 402.58 467.76 402.58ZM60.1395 420.836C59.8718 420.836 59.6156 420.705 59.496 420.48C57.9185 417.528 56.3581 414.547 54.8261 411.547C54.6724 411.24 54.8375 410.879 55.1963 410.742C55.5551 410.615 55.9765 410.747 56.136 411.059C57.6622 414.055 59.2112 417.026 60.7887 419.973C60.9538 420.28 60.7944 420.641 60.4413 420.783C60.3445 420.822 60.242 420.836 60.1395 420.836ZM460.088 421.851C460.002 421.851 459.916 421.835 459.83 421.792C459.51 421.649 459.368 421.257 459.505 420.923C460.854 417.723 462.122 414.428 463.288 411.127C463.41 410.788 463.77 410.608 464.105 410.735C464.429 410.862 464.597 411.244 464.475 411.588C463.304 414.915 462.021 418.232 460.667 421.453C460.56 421.702 460.332 421.851 460.088 421.851ZM69.3152 439.093C69.0687 439.093 68.833 438.969 68.7152 438.756C67.1134 435.813 65.5277 432.84 63.9634 429.837C63.8027 429.53 63.942 429.159 64.2795 429.01C64.6224 428.866 65.0134 428.99 65.1741 429.297C66.733 432.29 68.308 435.258 69.9098 438.196C70.0759 438.503 69.9473 438.875 69.6151 439.028C69.5187 439.073 69.4169 439.093 69.3152 439.093ZM450.037 439.093C449.909 439.093 449.781 439.067 449.664 439.007C449.315 438.825 449.204 438.44 449.408 438.142C451.382 435.243 453.275 432.269 455.028 429.295C455.215 428.981 455.646 428.86 456.007 429.022C456.368 429.184 456.508 429.563 456.327 429.872C454.556 432.866 452.652 435.866 450.66 438.784C450.526 438.981 450.281 439.093 450.037 439.093ZM437.852 456.335C437.703 456.335 437.548 456.296 437.416 456.213C437.105 456.014 437.042 455.63 437.278 455.362C439.581 452.785 441.821 450.135 443.935 447.476C444.159 447.199 444.602 447.121 444.935 447.311C445.262 447.5 445.348 447.879 445.124 448.157C442.999 450.836 440.747 453.505 438.427 456.096C438.283 456.252 438.07 456.335 437.852 456.335ZM80.4031 457.349C80.1442 457.349 79.8971 457.233 79.7618 457.026C77.8849 454.139 75.9904 451.146 74.1252 448.128C73.937 447.82 74.0664 447.436 74.4253 447.275C74.7901 447.123 75.2314 447.229 75.4196 447.537C77.2848 450.545 79.1734 453.533 81.0445 456.41C81.2445 456.713 81.1151 457.102 80.762 457.268C80.6502 457.324 80.5267 457.349 80.4031 457.349ZM423.655 471.548C423.482 471.548 423.303 471.491 423.164 471.37C422.875 471.13 422.858 470.712 423.129 470.451C425.765 467.895 428.343 465.266 430.788 462.648C431.048 462.382 431.505 462.34 431.806 462.57C432.112 462.805 432.152 463.218 431.892 463.495C429.43 466.129 426.84 468.768 424.187 471.344C424.043 471.48 423.852 471.548 423.655 471.548ZM90.5878 474.591C90.3613 474.591 90.1348 474.482 90.0023 474.286C88.0855 471.392 86.1577 468.41 84.2741 465.423C84.0863 465.114 84.1913 464.717 84.5227 464.536C84.8486 464.356 85.2739 464.464 85.4673 464.768C87.3453 467.75 89.2621 470.722 91.1788 473.605C91.3777 473.91 91.2783 474.307 90.9524 474.493C90.8419 474.56 90.7148 474.591 90.5878 474.591ZM408.392 485.747C408.205 485.747 408.024 485.677 407.891 485.537C407.646 485.281 407.672 484.884 407.944 484.654C410.62 482.396 413.231 480.097 415.72 477.809C415.981 477.568 416.407 477.578 416.658 477.819C416.919 478.07 416.914 478.467 416.647 478.707C414.148 481.006 411.52 483.319 408.834 485.587C408.706 485.692 408.546 485.747 408.392 485.747ZM102.806 491.833C102.599 491.833 102.397 491.732 102.273 491.546C100.317 488.664 98.3605 485.692 96.4612 482.714C96.2594 482.412 96.3474 481.998 96.6475 481.796C96.9425 481.6 97.341 481.684 97.5428 481.992C99.4369 484.959 101.388 487.916 103.334 490.787C103.541 491.09 103.468 491.504 103.173 491.711C103.06 491.79 102.935 491.833 102.806 491.833ZM391.178 498.932C390.966 498.932 390.759 498.852 390.625 498.7C390.391 498.439 390.446 498.069 390.754 497.87C393.718 495.936 396.66 493.954 399.485 491.972C399.78 491.758 400.216 491.796 400.462 492.048C400.707 492.304 400.668 492.673 400.372 492.882C397.531 494.878 394.583 496.87 391.602 498.809C391.474 498.895 391.323 498.932 391.178 498.932ZM115.946 508.061C115.747 508.061 115.543 507.981 115.405 507.827C113.174 505.292 110.905 502.633 108.658 499.92C108.431 499.647 108.498 499.255 108.801 499.051C109.111 498.853 109.541 498.908 109.773 499.18C112.004 501.884 114.262 504.533 116.487 507.053C116.724 507.321 116.675 507.713 116.376 507.927C116.249 508.016 116.1 508.061 115.946 508.061ZM372.892 511.103C372.678 511.103 372.47 511.001 372.336 510.817C372.133 510.526 372.213 510.128 372.523 509.934C375.495 508.03 378.451 506.075 381.311 504.124C381.605 503.915 382.027 503.987 382.241 504.272C382.454 504.558 382.39 504.962 382.091 505.166C379.221 507.121 376.254 509.082 373.266 510.996C373.154 511.068 373.02 511.103 372.892 511.103ZM354.683 521.246C354.438 521.246 354.204 521.142 354.068 520.959C353.868 520.682 353.976 520.321 354.318 520.152C357.634 518.523 360.904 516.875 364.032 515.247C364.368 515.082 364.806 515.157 365.017 515.43C365.222 515.707 365.125 516.068 364.795 516.242C361.65 517.871 358.374 519.528 355.047 521.161C354.933 521.217 354.808 521.246 354.683 521.246ZM131.126 524.288C130.936 524.288 130.739 524.215 130.601 524.079C128.03 521.567 125.436 518.924 122.894 516.235C122.64 515.963 122.669 515.545 122.975 515.315C123.281 515.086 123.738 515.112 123.992 515.389C126.522 518.068 129.104 520.69 131.658 523.192C131.929 523.458 131.912 523.871 131.617 524.116C131.479 524.231 131.305 524.288 131.126 524.288ZM335.394 531.388C335.144 531.388 334.904 531.268 334.782 531.063C334.598 530.759 334.726 530.379 335.06 530.214C338.345 528.626 341.597 527.017 344.815 525.384C345.149 525.214 345.572 525.319 345.767 525.619C345.951 525.918 345.834 526.298 345.5 526.473C342.276 528.106 339.013 529.72 335.723 531.313C335.617 531.363 335.505 531.388 335.394 531.388ZM145.381 537.473C145.221 537.473 145.06 537.418 144.937 537.314C142.311 535.116 139.68 532.799 137.123 530.427C136.855 530.183 136.855 529.788 137.118 529.544C137.374 529.299 137.797 529.299 138.059 529.539C140.605 531.901 143.22 534.198 145.83 536.385C146.103 536.615 146.124 537.009 145.878 537.269C145.745 537.403 145.563 537.473 145.381 537.473ZM316.112 541.53C315.86 541.53 315.614 541.398 315.499 541.166C315.329 540.839 315.471 540.438 315.805 540.28C319.09 538.708 322.353 537.125 325.589 535.516C325.917 535.353 326.328 535.479 326.508 535.801C326.678 536.123 326.552 536.524 326.213 536.693C322.972 538.302 319.709 539.89 316.413 541.462C316.315 541.509 316.211 541.53 316.112 541.53ZM296.83 550.658C296.576 550.658 296.333 550.509 296.219 550.255C296.063 549.912 296.209 549.497 296.549 549.342C299.83 547.788 303.101 546.218 306.344 544.636C306.674 544.481 307.09 544.62 307.247 544.962C307.409 545.305 307.263 545.72 306.928 545.886C303.674 547.473 300.403 549.038 297.111 550.592C297.025 550.636 296.928 550.658 296.83 550.658ZM162.602 550.658C162.471 550.658 162.334 550.619 162.213 550.546C159.282 548.709 156.318 546.726 153.408 544.645C153.112 544.435 153.063 544.049 153.298 543.785C153.545 543.526 153.972 543.482 154.263 543.692C157.15 545.754 160.087 547.727 162.997 549.545C163.309 549.74 163.386 550.121 163.167 550.4C163.035 550.566 162.822 550.658 162.602 550.658ZM276.543 557.758C276.286 557.758 276.039 557.624 275.926 557.399C275.781 557.097 275.937 556.743 276.275 556.609C279.559 555.33 282.833 554.042 286.085 552.739C286.423 552.605 286.82 552.739 286.97 553.041C287.12 553.342 286.97 553.697 286.637 553.831C283.375 555.134 280.101 556.427 276.811 557.705C276.726 557.739 276.634 557.758 276.543 557.758ZM181.869 560.801C181.764 560.801 181.658 560.781 181.558 560.735C178.295 559.279 174.994 557.652 171.742 555.884C171.414 555.708 171.309 555.32 171.503 555.022C171.698 554.725 172.126 554.625 172.459 554.806C175.677 556.549 178.946 558.166 182.175 559.607C182.52 559.763 182.659 560.136 182.492 560.448C182.37 560.675 182.119 560.801 181.869 560.801ZM256.248 565.872C255.978 565.872 255.723 565.711 255.628 565.454C255.501 565.127 255.681 564.765 256.026 564.649C257.564 564.121 259.139 563.537 260.708 562.908C262.411 562.223 264.118 561.539 265.82 560.849C266.155 560.719 266.547 560.86 266.69 561.177C266.833 561.499 266.68 561.871 266.345 562.002C264.638 562.696 262.93 563.386 261.223 564.07C259.632 564.704 258.036 565.298 256.477 565.832C256.402 565.857 256.323 565.872 256.248 565.872ZM202.138 568.569C202.082 568.569 202.02 568.558 201.963 568.548C198.373 567.696 194.732 566.641 191.136 565.414C190.769 565.293 190.582 564.922 190.723 564.598C190.865 564.268 191.272 564.106 191.634 564.233C195.19 565.44 198.786 566.484 202.319 567.321C202.698 567.412 202.924 567.757 202.823 568.092C202.738 568.381 202.455 568.569 202.138 568.569ZM234.976 570.909C234.626 570.909 234.33 570.666 234.292 570.341C234.253 569.991 234.527 569.682 234.899 569.642C238.474 569.292 242.081 568.724 245.617 567.953C246 567.867 246.356 568.09 246.438 568.424C246.531 568.764 246.301 569.109 245.935 569.185C242.338 569.971 238.676 570.544 235.047 570.904C235.02 570.909 234.998 570.909 234.976 570.909ZM223.466 570.471H223.455C219.85 570.405 216.185 570.121 212.553 569.634C212.184 569.584 211.928 569.264 211.982 568.919C212.031 568.569 212.341 568.321 212.749 568.382C216.321 568.863 219.932 569.137 223.482 569.203C223.852 569.213 224.156 569.502 224.146 569.852C224.14 570.197 223.836 570.471 223.466 570.471Z" fill="#D8D5DB"/>
<mask id="mask1_36111_354" style="mask-type:luminance" maskUnits="userSpaceOnUse" x="50" y="88" width="400" height="499">
<path fill-rule="evenodd" clip-rule="evenodd" d="M50.7117 88.1672H449.306V586.156H50.7117V88.1672Z" fill="white"/>
</mask>
<g mask="url(#mask1_36111_354)">
<path fill-rule="evenodd" clip-rule="evenodd" d="M421.922 507.02C418.826 507.782 415.731 509.256 413.244 511.848C411.807 513.372 409.928 516.218 408.27 519.217C407.883 508.951 407.496 500.209 407.109 494.822C408.159 494.72 408.767 494.72 408.767 494.72C408.767 493.501 408.767 492.281 408.712 490.959C408.435 466.209 405.506 423.161 401.637 380.267C403.019 382.91 404.345 385.349 405.617 387.535C405.672 388.297 405.672 389.059 405.838 389.872C407.883 400.139 418.108 456.959 421.093 491.214C421.645 497.363 421.922 502.75 421.922 507.02ZM446.414 381.528V381.427C443.236 371.846 432.55 343.306 420.385 314.968L433.865 310.71C433.865 310.71 394.41 245.772 371.34 231.477C371.285 231.426 371.23 231.426 371.175 231.375C363.065 224.38 351.229 219.817 333.529 217.942C333.419 204.407 334.515 181.595 335.775 164.105C344.872 162.179 349.256 152.294 349.859 150.114C351.119 145.653 349.968 141.953 347.612 139.57C348.324 134.044 349.53 123.298 349.201 114.071C348.927 105.606 347.448 98.4579 343.173 97.5962C343.228 97.4441 343.338 97.3427 343.392 97.2413C344.817 93.0338 342.132 88.37 342.022 88.1672L339.611 89.3839C340.269 90.4484 341.639 93.7942 340.762 96.4302C336.707 92.2734 324.103 90.6005 309.965 90.854C290.183 91.1581 267.496 95.3657 261.359 101.956C257.084 106.518 258.345 109.002 262.783 110.117C262.126 114.376 261.852 118.076 261.742 121.473C261.085 123.044 260.482 124.666 259.879 126.39C258.29 127.404 256.755 128.874 255.605 131.155L258.125 132.22C258.18 132.118 258.235 132.067 258.29 131.966C257.632 134.551 257.029 137.187 256.591 140.077C251.659 171.507 243.604 202.784 277.305 203.139C277.25 206.688 277.031 210.135 276.647 213.379C276.373 215.965 275.99 218.398 275.497 220.578C262.674 223.467 252.645 228.029 245.686 234.163C220.917 253.072 189.627 313.802 189.627 313.802L200.148 318.618C192.367 332.609 184.695 346.905 178.941 358.514C152.309 341.481 105.511 309.899 91.7012 296.06C91.7012 296.009 91.6464 296.009 91.5916 295.958C92.1396 290.635 91.0984 282.018 89.5641 277.151C89.5641 277.05 89.5641 276.948 89.5093 276.796C89.3997 276.543 89.2901 276.391 89.2353 276.188C89.1257 275.884 89.0161 275.529 88.9065 275.275C88.6325 274.616 88.4133 274.16 88.1941 273.755C84.5226 266.252 78.7139 263.312 75.2616 253.325C73.4532 248.003 69.0145 250.182 67.3157 253.731L54.2736 226.762L50.7117 228.232L67.4801 263.058C63.5346 261.436 60.0823 260.473 57.7259 261.233C54.4928 262.247 50.9309 277.303 52.4652 282.677C53.9996 287.999 69.7269 305.134 75.5904 308.074C76.0287 308.277 76.5219 308.429 76.9603 308.479C86.4405 320.747 149.295 389.791 174.557 401.755C190.23 409.105 202.011 402.769 205.902 393.34C210.944 385.837 220.205 371.187 230.288 354.255C227 401.4 220.698 454.526 208.806 491.786C209.902 491.938 211.053 492.09 212.204 492.242C208.861 507.703 206.395 528.031 204.642 548.663C217.026 553.53 229.63 557.94 242.343 561.894C299.06 579.637 357.914 588.508 409.096 585.619C409.918 583.287 410.302 580.853 410.247 578.268C409.973 568.129 409.644 555.71 409.315 543.442C412.055 550.032 415.617 555.456 418.467 556.825C421.481 558.244 435.728 550.184 438.852 545.368C441.921 540.704 444.277 518.298 442.469 512.316C442.359 511.911 442.03 511.607 441.811 511.252C442.469 507.906 443.455 500.606 444.551 491.076C448.058 458.937 452.223 401.197 446.414 381.528Z" fill="#D1CDD3"/>
</g>
<path fill-rule="evenodd" clip-rule="evenodd" d="M307.313 284.667L271.517 263.052C271.517 263.052 235.94 323.636 218.396 359.082C191.725 341.994 144.831 310.353 130.988 296.451C130.95 296.415 130.911 296.395 130.873 296.359C131.417 291.014 130.373 282.401 128.852 277.518C128.819 277.391 128.814 277.289 128.764 277.152C128.688 276.924 128.583 276.741 128.501 276.522C128.391 276.238 128.292 275.877 128.182 275.633C127.891 274.977 127.666 274.5 127.463 274.088C123.784 266.614 117.952 263.626 114.515 253.646C112.121 246.68 105.219 252.523 105.899 257.549C105.899 257.549 106.926 260.811 108.085 263.951C103.522 261.939 99.5792 260.719 96.9215 261.548C93.7037 262.549 90.107 277.66 91.65 283.062C93.1656 288.377 108.947 305.562 114.855 308.519C115.284 308.732 115.734 308.849 116.195 308.915C125.722 321.227 188.705 390.439 214.025 402.39C229.707 409.793 241.486 403.416 245.423 393.986C257.394 376.003 293.618 317.477 307.313 284.667Z" fill="#FFAD69"/>
<path fill-rule="evenodd" clip-rule="evenodd" d="M312.529 247.758C317.968 272.984 296.103 344.769 296.103 344.769L229.217 314.503C229.217 314.503 298.183 181.212 312.529 247.758Z" fill="#EA3939"/>
<path fill-rule="evenodd" clip-rule="evenodd" d="M449.306 578.288C449.306 579.097 449.306 579.906 449.196 580.715C436.635 583.243 423.251 584.912 409.318 585.62C358.086 588.502 299.175 579.653 242.402 561.955C244.377 534.953 247.449 506.788 252.166 487.776L409.154 490.658L421.441 490.911L444.808 491.315L446.179 491.366C447.276 502.895 448.593 549.567 449.306 578.288Z" fill="#232323"/>
<path fill-rule="evenodd" clip-rule="evenodd" d="M360.176 217.099C403.14 218.41 417.663 231.831 425.07 255.042C433.478 281.398 448.292 440.582 448.292 493.773C448.292 493.773 319.717 502.202 248.488 491.399C270.817 421.587 273.235 296.053 273.684 258.657C274.018 230.596 305.707 215.434 360.176 217.099Z" fill="#FF4E4A"/>
<path fill-rule="evenodd" clip-rule="evenodd" d="M322.081 152.331C317.895 149.391 296.068 152.058 302.358 110.556C304.645 95.4139 319.875 105.52 330.653 107.541C341.431 109.561 334.579 153.078 334.579 153.078L322.081 152.331Z" fill="#232323"/>
<path fill-rule="evenodd" clip-rule="evenodd" d="M376.281 141.922C374.457 153.005 370.809 212.972 372.328 226.895C373.847 240.823 301.781 244.802 311.206 229.454C320.636 214.106 313.945 163.234 313.945 163.234L376.281 141.922Z" fill="#FFAD69"/>
<path fill-rule="evenodd" clip-rule="evenodd" d="M372.201 143.95L314.413 163.536C314.413 163.536 318.314 193.112 315.96 213.932C360.024 210.778 371.334 159.264 372.08 149.344C372.201 147.475 372.261 145.672 372.201 143.95Z" fill="#D88344"/>
<path fill-rule="evenodd" clip-rule="evenodd" d="M295.639 140.532C290.298 174.712 281.228 208.79 325.857 203.181C370.49 197.571 377.425 144.449 377.294 134.429C376.599 80.962 306.142 73.3202 295.639 140.532Z" fill="#FFAD69"/>
<path fill-rule="evenodd" clip-rule="evenodd" d="M382.382 97.5088C382.437 97.3777 382.557 97.2869 382.606 97.1559C384.055 92.9968 381.387 88.3638 381.273 88.1672L378.868 89.362C378.89 89.4024 381.076 93.2388 380.005 96.3593C370.244 86.4129 311.278 90.6526 300.79 101.89C287.466 116.167 328.445 109.729 351.536 106.124C354.771 118.597 369.429 139.251 373.654 142.185L386.284 142.936C386.284 142.936 393.176 99.6967 382.382 97.5088Z" fill="#232323"/>
<path fill-rule="evenodd" clip-rule="evenodd" d="M481.351 511.958C484.189 497.354 493.535 407.64 485.969 382.136C485.958 382.095 485.964 382.054 485.953 382.009C480.671 366.044 454.445 297.228 435.457 264.644L394.537 275.767C394.537 275.767 428.784 358.554 445.389 387.834C445.439 388.621 445.439 389.392 445.603 390.204C448.047 402.282 461.699 478.913 461.546 507.137C458.522 507.919 455.443 509.39 452.994 511.978C449.876 515.277 444.442 524.751 444.825 528.953C445.915 540.944 453.109 555.229 458.034 557.589C461.047 559.03 475.248 550.926 478.365 546.151C481.433 541.452 483.8 519.037 481.992 513.059C481.871 512.648 481.575 512.318 481.351 511.958Z" fill="#FFAD69"/>
<path fill-rule="evenodd" clip-rule="evenodd" d="M410.429 231.537C433.407 245.766 472.633 310.491 472.633 310.491L402.783 332.598C402.783 332.598 349.812 194.002 410.429 231.537Z" fill="#FF4E4A"/>
<path fill-rule="evenodd" clip-rule="evenodd" d="M333.402 138.695C333.534 140.375 332.636 141.814 331.389 141.916C330.141 142.014 329.026 140.738 328.894 139.059C328.757 137.384 329.66 135.939 330.907 135.842C332.15 135.74 333.265 137.015 333.402 138.695Z" fill="#232323"/>
<path fill-rule="evenodd" clip-rule="evenodd" d="M305.004 139.709C305.136 141.389 304.238 142.828 302.991 142.931C301.748 143.028 300.627 141.753 300.496 140.078C300.359 138.398 301.261 136.954 302.509 136.856C303.751 136.754 304.872 138.029 305.004 139.709Z" fill="#232323"/>
<path fill-rule="evenodd" clip-rule="evenodd" d="M340.54 129.751C336.772 124.096 330.288 125.442 330.223 125.453L329.626 122.867C329.968 122.798 338.024 121.129 342.812 128.304L340.54 129.751Z" fill="#232323"/>
<path fill-rule="evenodd" clip-rule="evenodd" d="M297.595 132.794L295.142 131.728C298.783 124.189 306.967 124.676 307.313 124.691L307.124 127.248C306.87 127.233 300.447 126.91 297.595 132.794Z" fill="#232323"/>
<path fill-rule="evenodd" clip-rule="evenodd" d="M324.558 170.32C322.72 170.32 321.557 170.131 321.512 170.12L322.016 167.603C322.526 167.69 334.682 169.597 341.455 159.164L343.826 160.486C338.238 169.09 329.238 170.32 324.558 170.32Z" fill="#232323"/>
<path fill-rule="evenodd" clip-rule="evenodd" d="M303.256 159.164L310.164 136.851L312.765 137.571L306.895 156.544L316.403 156.426L316.441 158.999L303.256 159.164Z" fill="#D88344"/>
<path fill-rule="evenodd" clip-rule="evenodd" d="M125.765 293.597L122.207 295.071L90.2668 228.591L93.8199 227.117L125.765 293.597Z" fill="#232323"/>
<path fill-rule="evenodd" clip-rule="evenodd" d="M366.491 146.777C362.523 155.324 357.558 163.592 370.013 165.126C382.467 166.666 388.26 153.295 388.966 150.675C392.729 136.702 374.288 129.973 366.491 146.777Z" fill="#FFAD69"/>
<path fill-rule="evenodd" clip-rule="evenodd" d="M176.469 5H47.6826C43.1947 5 39.5552 8.36819 39.5552 12.5277V55.0308C39.5552 59.1903 43.1947 62.5636 47.6826 62.5636H55.5255L64.3699 73.5153C66.3348 75.9502 70.456 75.2248 71.3262 72.2928L74.1941 62.5636H176.469C180.957 62.5636 184.591 59.1903 184.591 55.0308V12.5277C184.591 8.36819 180.957 5 176.469 5Z" fill="#4D8DFF"/>
<mask id="mask2_36111_354" style="mask-type:luminance" maskUnits="userSpaceOnUse" x="0" y="5" width="570" height="582">
<path fill-rule="evenodd" clip-rule="evenodd" d="M0 586.157H570V5H0V586.157Z" fill="white"/>
</mask>
<g mask="url(#mask2_36111_354)">
<path fill-rule="evenodd" clip-rule="evenodd" d="M51.7261 18.9457H165.32V16.4101H51.7261V18.9457Z" fill="white"/>
<path fill-rule="evenodd" clip-rule="evenodd" d="M51.7261 31.1166H126.779V28.581H51.7261V31.1166Z" fill="white"/>
<path fill-rule="evenodd" clip-rule="evenodd" d="M51.7261 42.2731H146.05V39.7375H51.7261V42.2731Z" fill="white"/>
<path fill-rule="evenodd" clip-rule="evenodd" d="M146.052 146.993H47.6669C43.1847 146.993 39.5552 150.366 39.5552 154.521V197.024C39.5552 201.183 43.1847 204.557 47.6669 204.557H55.4999L64.3332 215.508C66.2955 217.943 70.417 217.218 71.2806 214.286L74.1449 204.557H146.052C150.534 204.557 154.164 201.183 154.164 197.024V154.521C154.164 150.366 150.534 146.993 146.052 146.993Z" fill="#FF4E4A"/>
<path fill-rule="evenodd" clip-rule="evenodd" d="M51.7261 160.939H104.466V158.403H51.7261V160.939Z" fill="white"/>
<path fill-rule="evenodd" clip-rule="evenodd" d="M115.623 160.939H133.879V158.403H115.623V160.939Z" fill="white"/>
<path fill-rule="evenodd" clip-rule="evenodd" d="M51.7261 173.109H89.2528V170.574H51.7261V173.109Z" fill="white"/>
<path fill-rule="evenodd" clip-rule="evenodd" d="M51.7261 185.28H123.737V182.745H51.7261V185.28Z" fill="white"/>
<path fill-rule="evenodd" clip-rule="evenodd" d="M113.587 75.9965H233.287C237.761 75.9965 241.388 79.3697 241.388 83.5241V126.032C241.388 130.186 237.761 133.559 233.287 133.559H225.454L216.627 144.516C214.666 146.946 210.548 146.22 209.69 143.288L206.823 133.559H113.587C109.107 133.559 105.48 130.186 105.48 126.032V83.5241C105.48 79.3697 109.107 75.9965 113.587 75.9965Z" fill="#FFC84D"/>
<path fill-rule="evenodd" clip-rule="evenodd" d="M180.534 89.9422H228.203V87.4066H180.534V89.9422Z" fill="white"/>
<path fill-rule="evenodd" clip-rule="evenodd" d="M123.737 102.113H228.203V99.5774H123.737V102.113Z" fill="white"/>
<path fill-rule="evenodd" clip-rule="evenodd" d="M177.491 113.27H229.217V110.734H177.491V113.27Z" fill="white"/>
<path fill-rule="evenodd" clip-rule="evenodd" d="M145.036 113.27H168.363V110.734H145.036V113.27Z" fill="white"/>
<path fill-rule="evenodd" clip-rule="evenodd" d="M322.017 284.929C301.049 284.929 283.986 300.627 283.986 319.917C283.986 339.213 301.049 354.911 322.017 354.911C342.99 354.911 360.053 339.213 360.053 319.917C360.053 300.627 342.99 284.929 322.017 284.929ZM321.51 357.954C299.142 357.954 280.943 341.12 280.943 320.425C280.943 299.734 299.142 282.9 321.51 282.9C343.883 282.9 362.082 299.734 362.082 320.425C362.082 341.12 343.883 357.954 321.51 357.954Z" fill="white"/>
</g>
</svg>
