<svg width="570" height="610" viewBox="0 0 570 610" fill="none" xmlns="http://www.w3.org/2000/svg">
<path d="M552.461 396.29C545.252 437.01 524.52 474.085 493.637 501.482C482.975 510.914 471.437 519.301 459.182 526.528C415.989 552.726 362.459 568.605 306.731 581.629L297.194 583.783C288.91 585.671 280.414 586.445 271.927 586.087C183.293 582.38 122.921 450.589 104.146 311.886C87.7672 188.41 115.181 48.554 237.921 42.2424C284.011 39.9382 337.791 62.9803 387.726 100.048C391.321 102.703 394.916 105.458 398.462 108.263L400.659 110.016C493.887 184.553 570.038 305.424 552.461 396.29Z" fill="#FDE6D6"/>
<path d="M118.194 511.821C125.114 525.823 127.653 543.562 113.764 549.243C98.2327 555.621 73.4422 545.356 66.2739 521.986C61.6443 507.037 63.2373 486.209 76.2299 478.186C86.833 471.31 109.931 494.68 118.194 511.821Z" fill="#F5F9FD"/>
<path d="M499.298 196.278C493.051 190.804 488.054 182.668 493.351 177.194C498.648 171.719 512.94 171.267 521.336 181.262C526.683 187.64 530.381 198.086 526.333 204.464C522.735 209.888 507.093 202.958 499.298 196.278Z" fill="#FFAD69"/>
<path fill-rule="evenodd" clip-rule="evenodd" d="M204.11 116.746C200.928 116.395 197.698 116.145 194.468 115.994C194.212 116.07 193.938 115.97 193.784 115.745C193.631 115.519 193.631 115.217 193.784 114.992C193.938 114.766 194.212 114.666 194.468 114.742C197.358 114.742 200.328 115.073 203.233 115.396C203.526 115.429 203.818 115.461 204.11 115.493C204.273 115.505 204.424 115.588 204.525 115.722C204.626 115.855 204.668 116.027 204.64 116.195C204.601 116.48 204.385 116.705 204.11 116.746ZM155.351 119.5C155.087 119.479 154.858 119.303 154.765 119.049C154.671 118.704 154.867 118.345 155.204 118.248C158.283 117.396 161.508 116.645 164.978 115.993C165.133 115.948 165.301 115.971 165.439 116.056C165.578 116.141 165.676 116.282 165.711 116.444C165.771 116.789 165.555 117.12 165.222 117.196C161.997 117.847 158.821 118.598 155.742 119.45L155.351 119.5ZM234.046 122.011C237.21 122.863 240.373 123.765 243.537 124.767H243.982C244.309 124.767 244.575 124.498 244.575 124.166C244.575 123.834 244.309 123.564 243.982 123.564C240.769 122.512 237.556 121.611 234.442 120.759C234.264 120.697 234.07 120.717 233.908 120.814C233.747 120.91 233.635 121.073 233.601 121.26C233.558 121.585 233.743 121.897 234.046 122.011ZM136.355 126.252C136.137 126.234 135.941 126.104 135.832 125.905C135.694 125.589 135.82 125.217 136.117 125.061C138.971 123.722 141.92 122.431 144.964 121.29C145.109 121.226 145.273 121.227 145.417 121.292C145.561 121.358 145.673 121.483 145.726 121.637C145.827 121.952 145.683 122.295 145.393 122.431C142.396 123.573 139.447 124.863 136.641 126.203L136.355 126.252ZM252.994 127.567C256.138 128.669 259.332 129.871 262.475 131.074L262.931 131.124C263.267 131.124 263.54 130.855 263.54 130.523C263.54 130.191 263.267 129.922 262.931 129.922C259.788 128.719 256.594 127.517 253.4 126.415C253.08 126.33 252.743 126.476 252.589 126.765C252.487 127.097 252.665 127.449 252.994 127.567ZM118.52 137.273C118.311 137.288 118.109 137.186 117.995 137.007C117.876 136.887 117.81 136.724 117.81 136.555C117.81 136.385 117.876 136.222 117.995 136.102C120.885 134.027 123.827 132.058 126.875 130.302C127.184 130.188 127.529 130.314 127.696 130.6C127.863 130.887 127.805 131.253 127.558 131.473C124.563 133.229 121.568 135.144 118.783 137.167C118.72 137.215 118.649 137.251 118.573 137.273H118.52ZM279.636 139.278H279.925H279.973C280.173 139.272 280.355 139.165 280.455 138.995C280.52 138.858 280.526 138.7 280.472 138.558C280.417 138.416 280.307 138.301 280.166 138.24C277.277 136.87 274.339 135.596 271.354 134.321C271.213 134.257 271.053 134.251 270.908 134.304C270.763 134.358 270.646 134.466 270.583 134.604C270.444 134.904 270.571 135.259 270.872 135.407C273.809 136.634 276.795 137.956 279.636 139.278ZM103.412 150.246C103.284 150.282 103.148 150.279 103.023 150.236C102.904 150.124 102.837 149.972 102.837 149.813C102.837 149.654 102.904 149.502 103.023 149.389C105.49 146.948 108.271 144.408 110.686 142.465C110.95 142.224 111.367 142.224 111.631 142.465C111.884 142.715 111.884 143.111 111.631 143.361C109.059 145.504 106.382 147.795 104.072 150.187C103.877 150.314 103.627 150.336 103.412 150.246ZM315.901 158.316H315.593C312.717 156.604 309.739 154.94 306.761 153.423C306.568 153.309 306.454 153.106 306.461 152.89C306.468 152.674 306.595 152.479 306.794 152.376C306.994 152.274 307.236 152.281 307.428 152.395C308.984 153.239 310.54 154.109 312.081 154.971L312.083 154.972L312.084 154.973C313.492 155.76 314.888 156.541 316.261 157.289C316.377 157.399 316.442 157.549 316.442 157.705C316.442 157.861 316.377 158.011 316.261 158.121C316.171 158.227 316.043 158.297 315.901 158.316ZM91.0312 165.284H91.3719C91.5683 165.372 91.7984 165.333 91.9558 165.186C93.5418 162.602 95.2411 160.436 96.9539 158.252L96.9539 158.252L96.954 158.252L96.954 158.252L96.954 158.252L96.954 158.252L96.954 158.252L96.9541 158.252L96.9541 158.252L96.9541 158.252L96.9541 158.252L96.9542 158.252L96.9543 158.252C97.1856 157.957 97.4173 157.661 97.6489 157.365C97.7746 157.253 97.8466 157.093 97.8466 156.925C97.8466 156.757 97.7746 156.596 97.6489 156.485C97.5393 156.375 97.3905 156.312 97.2353 156.312C97.0801 156.312 96.9312 156.375 96.8217 156.485C94.8266 159.027 92.8803 161.666 91.0312 164.453C90.9213 164.563 90.8595 164.712 90.8595 164.868C90.8595 165.024 90.9213 165.174 91.0312 165.284ZM332.824 169.297C332.708 169.352 332.572 169.352 332.456 169.297L323.736 163.506C323.432 163.32 323.337 162.927 323.526 162.627C323.715 162.327 324.114 162.235 324.419 162.42C327.396 164.282 330.337 166.195 333.244 168.159C333.466 168.412 333.466 168.786 333.244 169.038C333.157 169.188 332.999 169.285 332.824 169.297ZM81.2596 182.311C81.0972 182.249 80.9709 182.123 80.9126 181.965C80.8544 181.808 80.8701 181.634 80.9555 181.489C82.3743 178.538 83.9452 175.636 85.5667 172.83C85.63 172.572 85.8567 172.379 86.1331 172.349C86.4095 172.318 86.676 172.457 86.799 172.695C86.922 172.934 86.875 173.22 86.6815 173.411C85.06 176.168 83.5398 179.07 82.0703 182.021C82.004 182.162 81.8809 182.273 81.7285 182.328C81.5761 182.382 81.4072 182.376 81.2596 182.311ZM364.37 193.351C364.499 193.399 364.643 193.399 364.772 193.351C364.913 193.358 365.053 193.325 365.174 193.256C365.287 193.148 365.351 193.003 365.351 192.851C365.351 192.699 365.287 192.554 365.174 192.446C363.365 191.131 361.702 189.835 360.064 188.559L360.064 188.559C359.154 187.85 358.251 187.146 357.335 186.449C357.057 186.304 356.709 186.37 356.511 186.605C356.313 186.84 356.321 187.175 356.531 187.401C358.474 188.716 360.225 190.098 361.984 191.486L361.984 191.487L361.985 191.488L361.986 191.488C362.773 192.11 363.562 192.733 364.37 193.351ZM74.525 202.38C74.217 202.24 74.0492 201.894 74.1257 201.556C75.1738 198.207 76.2717 194.91 77.4695 191.768C77.6215 191.47 77.953 191.32 78.268 191.407C78.4234 191.464 78.5489 191.585 78.6151 191.741C78.6812 191.897 78.682 192.075 78.6174 192.231C77.4695 195.322 76.3716 198.619 75.3235 201.916C75.2266 202.272 74.8695 202.479 74.525 202.38ZM380.437 206.323C380.368 206.323 380.299 206.312 380.233 206.29C377.725 203.978 375.116 201.717 372.506 199.508C372.282 199.24 372.282 198.85 372.506 198.583C372.763 198.335 373.17 198.335 373.427 198.583L381.154 205.365C381.377 205.633 381.377 206.023 381.154 206.29C380.94 206.442 380.66 206.453 380.437 206.323ZM68.7347 220.182C68.8302 220.323 68.9828 220.416 69.1536 220.439C69.3431 220.454 69.5298 220.386 69.6643 220.254C69.7988 220.122 69.8675 219.938 69.8523 219.752C70.551 216.565 71.2996 213.329 72.148 210.191C72.2137 209.869 72.0192 209.551 71.6988 209.456C71.5334 209.395 71.3491 209.409 71.1951 209.494C71.0411 209.579 70.9332 209.727 70.9003 209.897C70.7387 210.582 70.5772 211.26 70.4169 211.934L70.4167 211.934C69.7847 214.588 69.172 217.161 68.6545 219.703C68.6099 219.867 68.6391 220.041 68.7347 220.182ZM408.653 234.409C408.513 234.47 408.352 234.47 408.212 234.409C406.011 232.064 403.712 229.624 401.462 227.471C401.226 227.23 401.226 226.85 401.462 226.609C401.716 226.4 402.088 226.4 402.342 226.609C403.312 227.599 404.291 228.625 405.267 229.647L405.27 229.651L405.27 229.651L405.271 229.651L405.271 229.651L405.271 229.651L405.271 229.652C406.559 231.001 407.842 232.344 409.093 233.596C409.329 233.836 409.329 234.216 409.093 234.457C408.944 234.483 408.792 234.466 408.653 234.409ZM65.098 239.789C65.0677 240.125 65.3081 240.427 65.6469 240.477C65.9724 240.51 66.2719 240.3 66.3456 239.986C66.7449 236.595 67.1941 233.302 67.6931 230.156C67.739 229.998 67.7091 229.828 67.6119 229.694C67.5148 229.56 67.361 229.477 67.1941 229.468C67.0349 229.44 66.8709 229.476 66.7393 229.569C66.6077 229.661 66.5197 229.802 66.4954 229.96C65.9464 233.203 65.4972 236.496 65.098 239.789ZM421.652 249.447C421.488 249.516 421.304 249.516 421.14 249.447L414.441 241.572C414.326 241.455 414.261 241.297 414.261 241.132C414.261 240.966 414.326 240.808 414.441 240.691C414.558 240.557 414.725 240.481 414.901 240.481C415.077 240.481 415.245 240.557 415.362 240.691C416.987 242.529 418.64 244.48 420.3 246.44L420.301 246.441L420.303 246.443C420.888 247.134 421.474 247.826 422.061 248.514C422.307 248.775 422.307 249.186 422.061 249.447C421.929 249.499 421.783 249.499 421.652 249.447ZM63.643 260.332C63.7568 260.453 63.9172 260.521 64.0851 260.521C64.4078 260.525 64.6843 260.295 64.7339 259.982C64.7943 258.659 64.9034 257.327 65.0121 256.001C65.1729 254.038 65.3328 252.086 65.3328 250.187C65.3364 249.843 65.0804 249.55 64.7339 249.501C64.5666 249.487 64.4011 249.543 64.2778 249.655C64.1544 249.766 64.0845 249.924 64.0851 250.089C64.0314 250.784 63.9732 251.481 63.9147 252.18L63.9147 252.181C63.7015 254.733 63.4862 257.308 63.4862 259.884C63.4722 260.048 63.5291 260.211 63.643 260.332ZM434.674 265.476C434.524 265.549 434.352 265.549 434.202 265.476C432.268 262.773 430.335 260.12 428.401 257.567C428.295 257.454 428.235 257.301 428.235 257.142C428.235 256.982 428.295 256.829 428.401 256.716C428.509 256.587 428.663 256.513 428.826 256.513C428.988 256.513 429.143 256.587 429.25 256.716C429.824 257.493 430.407 258.261 430.995 259.035L430.996 259.037C432.339 260.805 433.706 262.606 435.051 264.625C435.279 264.877 435.279 265.275 435.051 265.526L434.674 265.476ZM63.7836 279.973C63.7836 280.298 64.0517 280.561 64.3825 280.561H64.4324C64.6003 280.562 64.7607 280.493 64.8745 280.372C64.9884 280.251 65.0453 280.088 65.0313 279.924V273.067V270.129C65.0319 269.964 64.962 269.807 64.8386 269.695C64.7153 269.583 64.5498 269.527 64.3825 269.541C64.0517 269.541 63.7836 269.804 63.7836 270.129V273.067V279.973ZM445.639 281.516C445.46 281.579 445.264 281.579 445.085 281.516C443.271 278.906 441.357 276.248 439.392 273.541C439.278 273.433 439.214 273.285 439.214 273.131C439.214 272.976 439.278 272.829 439.392 272.72C439.646 272.487 440.046 272.487 440.299 272.72C442.314 275.378 444.228 278.084 446.042 280.694C446.255 280.93 446.255 281.28 446.042 281.516C445.914 281.57 445.768 281.57 445.639 281.516ZM456.188 298.293C456.28 298.483 456.468 298.601 456.672 298.597L457.01 298.293C457.12 298.18 457.181 298.025 457.181 297.864C457.181 297.702 457.12 297.548 457.01 297.434C455.608 294.552 453.914 291.67 452.173 288.737C451.937 288.524 451.587 288.524 451.351 288.737C451.139 289 451.139 289.384 451.351 289.647C452.279 291.375 453.259 293.103 454.24 294.831L454.241 294.835C454.895 295.988 455.549 297.14 456.188 298.293ZM65.705 300.552C65.3928 300.553 65.1322 300.319 65.1061 300.013C65.1061 298.013 64.926 296.012 64.7498 294.054C64.6326 292.752 64.5171 291.469 64.4573 290.218C64.4563 289.884 64.7175 289.607 65.0562 289.581C65.2235 289.567 65.389 289.623 65.5124 289.735C65.6357 289.847 65.7056 290.004 65.705 290.169C65.705 292.452 65.9104 294.786 66.1186 297.152C66.2007 298.084 66.2833 299.022 66.3538 299.964C66.3678 300.128 66.311 300.291 66.1971 300.412C66.0832 300.533 65.9228 300.602 65.7549 300.601L65.705 300.552ZM466.15 315.286C466.288 315.491 466.525 315.62 466.784 315.631V315.582C467.114 315.427 467.254 315.057 467.101 314.744C465.568 311.837 463.93 308.881 462.239 305.925C462.056 305.636 461.663 305.528 461.341 305.679C461.118 305.919 461.118 306.276 461.341 306.516C463.032 309.472 464.67 312.429 466.15 315.286ZM67.0037 320.641C66.681 320.645 66.4045 320.415 66.3549 320.102C65.9556 316.87 65.5564 313.589 65.207 310.307C65.1784 310.143 65.2217 309.975 65.3264 309.845C65.431 309.714 65.5871 309.633 65.756 309.622C66.0973 309.592 66.4033 309.828 66.4547 310.16C66.804 313.393 67.2033 316.674 67.6026 319.955C67.6312 320.119 67.5878 320.287 67.4832 320.418C67.3786 320.548 67.2225 320.63 67.0536 320.641H67.0037ZM472.967 334.25C473.066 334.504 473.3 334.669 473.559 334.669L473.757 334.617C473.91 334.558 474.035 334.435 474.1 334.276C474.165 334.118 474.166 333.937 474.102 333.778C472.967 330.526 471.683 327.275 470.349 324.023C470.195 323.696 469.824 323.557 469.51 323.708C469.365 323.777 469.252 323.904 469.197 324.062C469.141 324.22 469.147 324.395 469.214 324.548C470.547 327.799 471.781 331.051 472.967 334.25ZM70.2219 340.632C69.9265 340.636 69.6722 340.429 69.623 340.145C69.0241 336.927 68.4751 333.66 67.9761 330.393C67.9475 330.225 67.9896 330.052 68.0929 329.914C68.1962 329.777 68.352 329.686 68.5251 329.662C68.8664 329.632 69.1724 329.867 69.2238 330.198C69.6001 332.625 70.0048 335.051 70.4165 337.52L70.4166 337.52L70.4166 337.52L70.4167 337.521C70.5509 338.326 70.6859 339.135 70.8208 339.95C70.8826 340.285 70.6622 340.608 70.3217 340.681L70.2219 340.632ZM480.523 353.199C480.572 353.495 480.826 353.711 481.122 353.707L481.271 353.656C481.433 353.621 481.573 353.518 481.658 353.374C481.743 353.23 481.766 353.056 481.72 352.894C480.822 349.692 479.824 346.388 478.776 343.135C478.731 342.967 478.618 342.827 478.466 342.75C478.313 342.672 478.136 342.664 477.977 342.728C477.813 342.774 477.675 342.889 477.599 343.044C477.523 343.199 477.515 343.38 477.578 343.541C478.626 346.744 479.624 350.047 480.523 353.199ZM74.4138 360.721C74.1184 360.725 73.8641 360.517 73.8149 360.232C73.0663 357.001 72.3676 353.771 71.7687 350.443C71.7241 350.28 71.7533 350.105 71.8489 349.965C71.9444 349.824 72.0971 349.731 72.2678 349.709C72.4269 349.68 72.5909 349.716 72.7225 349.809C72.8541 349.901 72.9421 350.041 72.9665 350.198C73.2353 351.496 73.5127 352.811 73.7952 354.149L73.7956 354.152C74.1946 356.043 74.6037 357.981 75.0127 359.987C75.0578 360.143 75.0351 360.31 74.9501 360.449C74.865 360.588 74.7251 360.687 74.5635 360.721H74.4138ZM483.908 372.256C483.979 372.549 484.25 372.753 484.557 372.745L484.657 372.696C484.817 372.672 484.96 372.586 485.054 372.457C485.148 372.328 485.185 372.167 485.156 372.011C484.657 368.683 484.058 365.453 483.309 362.223C483.234 361.889 482.904 361.673 482.561 361.733C482.24 361.828 482.046 362.146 482.112 362.467C482.81 365.893 483.409 369.123 483.908 372.256ZM79.6205 380.761C79.3404 380.77 79.0916 380.578 79.0216 380.299V379.785C78.1732 376.447 77.3248 373.109 76.5262 369.514C76.4884 369.167 76.6991 368.842 77.0253 368.744C77.3492 368.699 77.6602 368.891 77.7739 369.206L77.7742 369.207L77.7743 369.207C78.5727 372.545 79.3711 375.883 80.2194 379.169V379.683C80.3153 380.037 80.1144 380.404 79.7702 380.504L79.6205 380.761ZM486.257 392.2C486.257 392.523 486.525 392.785 486.855 392.785L486.905 392.737C487.244 392.711 487.505 392.435 487.504 392.103C487.481 390.59 487.369 389.056 487.257 387.52C487.131 385.789 487.005 384.056 487.005 382.35C486.992 382.182 486.912 382.026 486.78 381.916C486.649 381.806 486.479 381.752 486.306 381.765C486.138 381.777 485.981 381.857 485.877 381.988C485.772 382.118 485.729 382.285 485.758 382.448C486.007 385.715 486.257 388.982 486.257 392.2ZM84.768 399.799C84.5061 399.799 84.2699 399.639 84.1691 399.392C83.2209 396.134 82.2727 392.826 81.3743 389.568C81.3292 389.405 81.3519 389.231 81.437 389.087C81.522 388.942 81.6619 388.84 81.8235 388.804C81.9757 388.757 82.1402 388.773 82.2807 388.849C82.4212 388.926 82.526 389.056 82.5721 389.211C83.4704 392.52 84.4187 395.778 85.3669 398.985C85.4672 399.321 85.2918 399.679 84.9677 399.799H84.768ZM484.706 412.635C484.812 412.758 484.969 412.828 485.134 412.825L485.334 412.776C485.598 412.717 485.798 412.502 485.833 412.238C485.908 411.554 485.99 410.866 486.072 410.174C486.373 407.643 486.681 405.057 486.681 402.442C486.661 402.117 486.41 401.851 486.082 401.805C485.915 401.792 485.749 401.848 485.626 401.959C485.503 402.071 485.433 402.228 485.433 402.393C485.234 405.724 484.934 409.005 484.585 412.189C484.555 412.348 484.599 412.511 484.706 412.635ZM90.8896 418.837C90.6199 418.816 90.3865 418.634 90.2907 418.372L90.2903 418.371L90.2902 418.37C89.2423 415.113 88.1944 411.856 87.1965 408.547C87.1698 408.237 87.3523 407.948 87.6375 407.85C87.9227 407.751 88.2359 407.869 88.3942 408.134C89.3924 411.443 90.4405 414.701 91.4885 417.958C91.5513 418.123 91.5437 418.307 91.4674 418.465C91.3912 418.622 91.2537 418.739 91.0893 418.786L90.8896 418.837ZM481.087 432.635C481.025 432.988 481.246 433.328 481.586 433.405L481.886 433.867C482.092 433.814 482.264 433.666 482.351 433.466C482.439 433.266 482.433 433.035 482.335 432.841C483.034 429.298 483.682 425.91 484.182 422.573C484.21 422.409 484.174 422.24 484.08 422.105C483.986 421.97 483.842 421.879 483.682 421.854C483.339 421.791 483.009 422.017 482.934 422.367C482.435 425.859 481.786 429.247 481.087 432.635ZM97.0552 437.875C96.7933 437.875 96.5571 437.712 96.4563 437.461C95.3084 434.251 94.1606 430.988 93.0626 427.726C92.9386 427.397 93.095 427.026 93.412 426.898C93.7289 426.769 94.0864 426.931 94.2105 427.26C94.5931 428.347 94.9702 429.435 95.3473 430.522C96.1014 432.697 96.8556 434.872 97.6541 437.047C97.7544 437.389 97.579 437.753 97.2548 437.875H97.0552ZM476.575 452.087C476.475 452.425 476.65 452.785 476.974 452.906H477.174C477.436 452.906 477.672 452.744 477.773 452.496C478.821 449.272 479.819 445.946 480.717 442.67C480.8 442.331 480.599 441.987 480.268 441.903C479.937 441.818 479.602 442.024 479.52 442.363C478.621 445.587 477.673 448.863 476.575 452.087ZM104.199 456.912C103.959 456.929 103.737 456.781 103.65 456.546C102.354 453.301 101.108 450.056 99.911 446.811C99.8291 446.646 99.8206 446.452 99.8879 446.281C99.9553 446.109 100.091 445.977 100.26 445.921C100.59 445.816 100.94 446 101.058 446.34C102.254 449.585 103.501 452.83 104.797 456.022C104.908 456.369 104.759 456.749 104.448 456.912H104.199ZM469.214 470.063C469.078 470.371 469.202 470.734 469.494 470.885C469.791 471.025 470.141 470.897 470.288 470.595C471.642 467.743 472.904 464.746 474.118 461.749C474.217 461.442 474.076 461.108 473.791 460.975C473.655 460.91 473.499 460.904 473.359 460.959C473.218 461.013 473.105 461.124 473.044 461.265C471.829 464.262 470.568 467.211 469.214 470.063ZM112.247 474.95C112.026 474.951 111.823 474.82 111.731 474.613C110.416 471.68 109.148 468.746 107.88 465.765C107.817 465.625 107.811 465.464 107.864 465.32C107.917 465.175 108.024 465.058 108.162 464.995C108.31 464.916 108.484 464.908 108.638 464.973C108.792 465.038 108.91 465.169 108.96 465.332C109.919 467.634 110.935 469.937 111.941 472.216L111.941 472.216L111.941 472.216L111.942 472.218L111.942 472.22C112.217 472.843 112.492 473.465 112.764 474.084C112.9 474.39 112.775 474.751 112.482 474.902L112.247 474.95ZM459.341 487.909H459.619L459.712 487.959C459.955 488.017 460.207 487.92 460.361 487.708C461.069 486.365 461.808 485 462.554 483.623L462.554 483.621L462.555 483.619C463.372 482.11 464.197 480.587 464.997 479.063C465.174 478.865 465.217 478.568 465.104 478.32C464.992 478.073 464.748 477.928 464.495 477.96C464.242 477.991 464.035 478.192 463.977 478.46C462.586 481.375 461.01 484.24 459.341 487.055C459.236 487.168 459.177 487.321 459.177 487.482C459.177 487.642 459.236 487.796 459.341 487.909ZM121.149 492.986C120.9 492.987 120.673 492.854 120.569 492.645C118.933 489.728 117.35 486.761 115.872 483.892C115.801 483.751 115.794 483.588 115.854 483.442C115.913 483.296 116.034 483.178 116.189 483.114C116.429 482.916 116.792 482.916 117.033 483.114L121.73 491.867C121.891 492.164 121.775 492.525 121.466 492.694L121.149 492.986ZM447.373 504.989H447.755H447.851C447.944 505.017 448.044 505.017 448.138 504.989C450.193 502.383 452.153 499.677 454.018 497.021C454.126 496.908 454.187 496.754 454.187 496.595C454.187 496.435 454.126 496.281 454.018 496.169C453.91 496.055 453.764 495.992 453.612 495.992C453.459 495.992 453.313 496.055 453.205 496.169C451.68 498.546 450.092 500.588 448.465 502.678C448.103 503.144 447.738 503.612 447.373 504.087C447.142 504.339 447.142 504.737 447.373 504.989ZM130.11 511.022C129.897 511.023 129.699 510.908 129.585 510.718L129.224 510.037C127.81 507.364 126.352 504.608 124.813 501.81C124.75 501.521 124.875 501.224 125.12 501.082C125.365 500.94 125.669 500.99 125.863 501.202C127.39 504.239 128.964 507.226 130.635 510.06C130.836 510.307 130.836 510.673 130.635 510.921L130.11 511.022ZM433.423 518.938C433.546 518.998 433.692 518.998 433.816 518.938C433.931 519.015 434.07 519.049 434.208 519.035C436.372 517.047 438.494 514.776 440.498 512.63L441.033 512.058C441.27 511.816 441.27 511.434 441.033 511.192C440.922 511.083 440.772 511.022 440.616 511.022C440.459 511.022 440.309 511.083 440.198 511.192C439.02 512.347 437.797 513.616 436.555 514.906L436.55 514.912L436.549 514.912L436.549 514.913L436.548 514.913C435.516 515.986 434.469 517.073 433.423 518.12C433.298 518.221 433.225 518.371 433.225 518.529C433.225 518.688 433.298 518.838 433.423 518.938ZM140.386 528.056C140.18 528.048 139.99 527.935 139.873 527.75C138.239 524.946 136.559 521.989 134.926 519.082C134.729 518.834 134.729 518.465 134.926 518.216C135.031 518.101 135.174 518.036 135.323 518.036C135.471 518.036 135.614 518.101 135.719 518.216C137.055 520.662 138.457 523.109 139.842 525.525L139.844 525.529L140.324 526.366L140.619 526.883C140.816 527.132 140.816 527.501 140.619 527.75L140.386 528.056ZM418.434 532.81C418.562 532.963 418.748 533.055 418.947 533.066L419.101 533.015C419.121 533 419.141 532.984 419.159 532.968C419.172 532.956 419.185 532.944 419.197 532.931C419.218 532.909 419.237 532.886 419.255 532.861L427.051 526.152C427.298 525.895 427.298 525.488 427.051 525.231C426.935 525.115 426.779 525.05 426.615 525.05C426.451 525.05 426.294 525.115 426.179 525.231C425.161 526.107 424.159 526.984 423.161 527.857L423.16 527.858L423.16 527.858L423.159 527.859C421.591 529.23 420.032 530.594 418.434 531.939C418.318 532.055 418.253 532.211 418.253 532.375C418.253 532.538 418.318 532.694 418.434 532.81ZM152.219 545.09C152.011 545.083 151.822 544.963 151.719 544.775C149.77 542.041 147.821 539.15 145.922 536.206C145.703 535.933 145.703 535.534 145.922 535.26C146.173 535.006 146.57 535.006 146.821 535.26C148.72 538.151 150.669 541.042 152.569 543.828C152.681 543.947 152.745 544.107 152.745 544.275C152.745 544.443 152.681 544.604 152.569 544.722C152.531 544.845 152.462 544.954 152.369 545.037L152.219 545.09ZM402.454 545.035C402.608 545.108 402.785 545.108 402.94 545.035L403.085 544.986C403.131 545.01 403.18 545.027 403.231 545.035C405.949 543.09 408.571 541.095 411.095 539.1C411.204 538.988 411.266 538.835 411.266 538.676C411.266 538.517 411.204 538.364 411.095 538.252C410.986 538.139 410.837 538.076 410.682 538.076C410.527 538.076 410.379 538.139 410.27 538.252C408.002 540.044 405.656 541.796 403.267 543.581L403.261 543.585L403.259 543.586L403.258 543.587L403.257 543.588L403.256 543.589L402.454 544.188C402.344 544.3 402.283 544.452 402.283 544.611C402.283 544.771 402.344 544.923 402.454 545.035ZM387.012 556.112C386.794 556.116 386.594 555.994 386.495 555.799C386.378 555.682 386.312 555.522 386.312 555.356C386.312 555.19 386.378 555.03 386.495 554.913C389.494 553.036 392.441 551.159 395.232 549.282C395.349 549.164 395.507 549.098 395.672 549.098C395.837 549.098 395.995 549.164 396.111 549.282C396.228 549.399 396.294 549.559 396.294 549.725C396.294 549.891 396.228 550.051 396.111 550.168C393.319 552.045 390.372 553.922 387.374 555.799L387.012 556.112ZM164.534 560.018C164.703 560.081 164.89 560.081 165.059 560.018L165.531 560.12C165.784 559.863 165.784 559.458 165.531 559.201C164.36 557.735 163.174 556.37 161.989 555.007L161.988 555.007L161.988 555.006L161.988 555.006L161.988 555.006L161.987 555.005L161.987 555.005L161.987 555.005L161.987 555.005L161.986 555.004L161.986 555.004L161.986 555.004L161.986 555.003L161.986 555.003L161.985 555.003L161.985 555.003L161.985 555.002L161.985 555.002L161.984 555.002L161.984 555.002L161.984 555.001L161.984 555.001L161.983 555.001L161.983 555L161.983 555L161.983 555L161.983 555L161.982 554.999L161.981 554.998C160.94 553.8 159.899 552.602 158.869 551.337C158.652 551.069 158.252 551.023 157.977 551.235C157.702 551.446 157.655 551.835 157.872 552.103C160.075 554.911 162.279 557.516 164.534 560.018ZM369.959 566.132C369.73 566.114 369.526 565.99 369.412 565.801C369.26 565.513 369.369 565.162 369.661 564.997C372.592 563.484 375.523 561.924 378.305 560.27C378.548 560.07 378.907 560.07 379.15 560.27C379.262 560.376 379.325 560.521 379.325 560.671C379.325 560.822 379.262 560.967 379.15 561.073L370.455 565.801L369.959 566.132ZM177.686 575.113C177.81 575.162 177.947 575.162 178.071 575.113V575.065C178.207 575.134 178.367 575.134 178.504 575.065C178.626 574.964 178.697 574.813 178.697 574.653C178.697 574.493 178.626 574.342 178.504 574.241C176.291 572.157 174.031 569.733 171.771 567.31L171.771 567.309C171.529 567.075 171.147 567.075 170.905 567.309C170.783 567.411 170.712 567.562 170.712 567.721C170.712 567.881 170.783 568.032 170.905 568.133C173.181 570.557 175.442 572.884 177.686 575.113ZM351.98 575.15C351.752 575.152 351.545 575.012 351.451 574.792C351.37 574.638 351.355 574.455 351.41 574.289C351.465 574.122 351.585 573.989 351.739 573.924L360.299 569.325C360.488 569.13 360.773 569.082 361.01 569.206C361.247 569.33 361.385 569.599 361.354 569.878C361.324 570.157 361.133 570.385 360.876 570.449C357.99 572.033 355.153 573.566 352.22 575.048L351.98 575.15ZM333.468 583.734C333.555 583.988 333.783 584.161 334.043 584.168L334.304 584.114L343.808 579.559C344.091 579.516 344.319 579.294 344.376 579.003C344.434 578.712 344.309 578.414 344.065 578.259C343.821 578.104 343.509 578.125 343.286 578.311C341.06 579.429 338.808 580.491 336.548 581.557L336.546 581.558L336.54 581.561C335.621 581.994 334.702 582.428 333.782 582.867C333.628 582.938 333.509 583.069 333.45 583.232C333.391 583.395 333.398 583.576 333.468 583.734ZM194.064 587.147C193.95 587.183 193.827 587.183 193.713 587.147C192.168 586.033 190.694 584.886 189.165 583.696L189.163 583.695C188.116 582.881 187.044 582.046 185.905 581.189C185.643 580.981 185.609 580.614 185.83 580.367C186.051 580.121 186.443 580.09 186.706 580.297L187.266 580.751C189.62 582.657 191.913 584.513 194.464 586.209C194.593 586.316 194.667 586.47 194.667 586.631C194.667 586.793 194.593 586.947 194.464 587.053C194.312 587.137 194.13 587.154 193.963 587.1L194.064 587.147ZM314.501 591.841C314.584 592.06 314.797 592.199 315.026 592.183L315.264 592.134C318.221 590.912 321.131 589.641 324.088 588.321C324.228 588.257 324.337 588.139 324.391 587.992C324.444 587.845 324.438 587.682 324.374 587.539C324.229 587.257 323.912 587.115 323.611 587.197C320.702 588.517 317.744 589.788 314.787 591.01C314.49 591.163 314.363 591.53 314.501 591.841ZM211.011 599.179H210.703C207.997 597.779 205.292 596.215 202.625 594.674L202.624 594.673L202.622 594.672L201.817 594.207C201.6 593.964 201.6 593.604 201.817 593.362C201.932 593.249 202.09 593.186 202.253 593.186C202.417 593.186 202.574 593.249 202.69 593.362C205.566 595.201 208.546 596.892 211.473 598.334C211.69 598.576 211.69 598.936 211.473 599.179C211.318 599.216 211.154 599.199 211.011 599.129V599.179ZM296.55 598.764C296.636 598.999 296.864 599.159 297.122 599.165L297.382 599.115L307.059 595.408C307.376 595.27 307.534 594.924 307.423 594.606C307.281 594.3 306.921 594.149 306.591 594.255L296.914 597.963C296.741 598.004 296.598 598.12 296.527 598.277C296.455 598.434 296.464 598.614 296.55 598.764ZM278.156 606.061C277.869 606.069 277.614 605.882 277.543 605.61C277.44 605.278 277.62 604.926 277.951 604.808C279.433 604.357 280.965 603.806 282.498 603.255L287.606 601.401C287.762 601.336 287.937 601.337 288.092 601.404C288.247 601.47 288.367 601.596 288.423 601.752C288.508 601.902 288.516 602.082 288.446 602.239C288.376 602.396 288.236 602.513 288.066 602.554L282.958 604.457C281.425 605.008 279.841 605.56 278.309 606.01L278.156 606.061ZM219.018 603.575C222.198 604.896 225.448 606.05 228.754 607.032V606.982C229.079 607.067 229.421 606.921 229.578 606.631C229.677 606.286 229.47 605.927 229.114 605.83C225.86 604.864 222.661 603.727 219.534 602.423C219.193 602.311 218.819 602.461 218.658 602.774C218.548 603.091 218.704 603.438 219.018 603.575ZM258.142 610C257.82 610 257.56 609.731 257.56 609.399C257.531 609.236 257.574 609.069 257.677 608.942C257.78 608.816 257.933 608.745 258.093 608.747C261.35 608.52 264.589 608.085 267.794 607.445C268.127 607.383 268.448 607.604 268.521 607.946C268.549 608.105 268.513 608.27 268.422 608.402C268.331 608.534 268.192 608.623 268.036 608.647C264.832 609.298 261.592 609.749 258.336 610H258.142ZM247.79 609.94C244.537 609.739 241.299 609.338 238.092 608.738C237.927 608.715 237.778 608.62 237.686 608.476C237.593 608.332 237.564 608.154 237.608 607.987C237.631 607.826 237.717 607.682 237.845 607.588C237.972 607.494 238.132 607.457 238.286 607.486C241.493 608.086 244.731 608.488 247.984 608.688C248.147 608.687 248.303 608.758 248.413 608.881C248.524 609.005 248.579 609.171 248.565 609.339C248.556 609.533 248.464 609.712 248.314 609.828C248.164 609.944 247.972 609.985 247.79 609.94ZM395.152 220.303C395.242 220.345 395.342 220.362 395.439 220.354C395.641 220.469 395.897 220.471 396.103 220.352C396.358 220.104 396.358 219.712 396.103 219.464C394.223 217.629 392.113 215.794 390.058 214.008C389.516 213.536 388.977 213.067 388.447 212.603C388.182 212.365 387.762 212.365 387.497 212.603C387.378 212.714 387.311 212.865 387.311 213.023C387.311 213.18 387.378 213.331 387.497 213.442C389.065 214.909 390.772 216.418 392.495 217.942C393.382 218.726 394.273 219.515 395.152 220.303ZM348.476 181.363H348.818C348.961 181.363 349.1 181.31 349.208 181.212C349.319 181.099 349.381 180.946 349.381 180.785C349.381 180.625 349.319 180.472 349.208 180.359C346.571 178.352 343.934 176.344 341.247 174.387C340.973 174.286 340.666 174.39 340.504 174.639C340.342 174.889 340.367 175.22 340.564 175.441C343.201 177.348 345.887 179.355 348.476 181.363ZM298.949 148.296H298.651C295.732 146.69 292.797 145.133 289.845 143.627C289.668 143.536 289.543 143.369 289.504 143.173C289.465 142.978 289.518 142.775 289.646 142.623C289.719 142.471 289.853 142.357 290.014 142.309C290.175 142.261 290.348 142.284 290.491 142.372C293.377 143.828 296.362 145.434 299.298 147.041C299.41 147.154 299.473 147.308 299.473 147.468C299.473 147.628 299.41 147.782 299.298 147.895C299.268 148.069 299.157 148.219 298.999 148.296H298.949ZM214.132 117.434C217.459 117.935 220.688 118.586 223.917 119.287C224.226 119.35 224.529 119.151 224.602 118.837C224.662 118.492 224.446 118.16 224.112 118.085C220.737 117.334 217.458 116.732 214.327 116.181C214.171 116.152 214.01 116.189 213.881 116.284C213.752 116.378 213.666 116.522 213.642 116.682C213.582 117.027 213.798 117.359 214.132 117.434ZM173.891 116.54C174.003 116.644 174.154 116.696 174.305 116.682H174.256C177.502 116.331 180.798 116.031 184.093 116.031C184.259 116.031 184.417 115.961 184.529 115.837C184.641 115.714 184.697 115.547 184.684 115.38C184.66 115.058 184.409 114.802 184.093 114.778C180.749 114.879 177.453 115.129 174.256 115.48C174.094 115.477 173.939 115.549 173.834 115.675C173.729 115.801 173.686 115.968 173.715 116.131C173.714 116.286 173.778 116.435 173.891 116.54Z" fill="#D8D5DB"/>
<path d="M483.765 396.507C483.765 397.108 483.765 397.609 483.765 398.161C482.519 412.146 470.556 441.972 458.843 468.339C459.242 477.863 459.541 486.384 459.591 493.402C459.591 494.705 459.591 495.908 459.591 497.112H458.146C458.494 503.327 458.943 514.105 459.292 526.486C416.178 552.702 362.746 568.593 307.122 581.626L297.602 583.781C289.334 585.67 280.852 586.445 272.381 586.087C271.872 583.989 271.687 581.825 271.833 579.671C273.011 551.41 275.941 523.251 280.605 495.357L277.515 494.906C288.829 456.509 294.511 401.118 297.452 353.046C297.801 347.382 298.1 341.868 298.349 336.404C291.122 343.823 286.138 348.435 286.138 348.435L270.836 323.121C251.946 336.855 234.102 348.986 225.379 354.6C218.152 361.418 205.841 362.42 196.171 349.588C180.521 328.986 158.44 242.516 155.849 227.829C155.47 227.685 155.117 227.482 154.802 227.228C151.213 222.215 138.653 194.896 139.849 189.582C141.045 184.269 146.927 172.79 153.755 171.236C152.958 168.78 152.061 166.223 150.765 162.664C147.874 154.744 144.435 146.724 149.618 147.626C154.802 148.528 166.664 177.702 168.708 182.715C169.007 180.359 169.306 178.454 169.306 178.454C170.901 173.742 179.275 171.236 178.029 178.454C176.583 188.479 180.072 193.492 179.923 201.763C179.923 202.214 179.923 202.716 179.923 203.417C179.943 203.718 179.943 204.019 179.923 204.32C179.949 204.536 179.949 204.755 179.923 204.971C179.923 204.971 179.923 205.222 179.923 205.322C178.709 211.482 176.557 217.417 173.543 222.917C178.976 240.762 203.897 287.43 218.401 313.145C227.273 305.727 238.339 296.904 249.802 288.082L248.806 286.428C248.806 286.428 307.919 230.837 338.523 226.626C338.971 224.471 339.27 222.115 339.569 219.658C339.868 217.202 340.068 213.042 340.167 209.633C317.688 209.382 315.595 192.74 317.838 171.587L314.299 170.684L319.533 157.05V156.047C318.958 155.375 318.624 154.527 318.586 153.641C318.586 151.987 319.034 150.583 319.931 150.533C320.059 150.483 320.202 150.483 320.33 150.533C320.33 149.33 320.729 148.127 320.878 146.924C321.277 144.267 321.775 141.911 322.274 139.455C320.941 139.192 319.57 139.192 318.237 139.455L317.838 136.999C319.486 136.704 321.174 136.704 322.822 136.999C324.476 130.278 327.149 123.854 330.747 117.951C323.57 117.449 320.18 115.094 325.165 109.279C332.89 100.256 369.475 95.7445 387.917 99.5541C394.396 100.908 398.633 103.264 398.683 106.772C398.683 107.173 398.683 107.424 398.683 107.775C400.569 106.972 402.193 105.652 403.368 103.965L405.462 105.369C404.259 107.08 402.692 108.502 400.876 109.529L400.128 109.93C419.866 122.863 391.954 192.139 391.855 192.139C391.306 204.019 390.957 215.749 391.007 224.02C408.751 226.075 419.966 231.288 427.392 239.459C447.33 255.549 477.933 321.567 477.933 321.567L465.423 324.875C474.344 353.648 481.921 382.521 484.114 392.196C484.179 393.642 484.062 395.09 483.765 396.507Z" fill="#D1CDD3"/>
<rect opacity="0.3" x="391.303" y="285.571" width="334.381" height="261.523" rx="34" transform="rotate(180 391.303 285.571)" fill="#4D8DFF"/>
<path opacity="0.3" fill-rule="evenodd" clip-rule="evenodd" d="M54.9665 308.617H369.303C379.929 308.617 390.117 304.379 397.617 296.84C405.116 289.301 409.309 279.081 409.27 268.439V40.0282C409.27 17.9212 391.376 0 369.303 0H54.9665C32.8936 0 15 17.9212 15 40.0282V268.589C15 290.696 32.8936 308.617 54.9665 308.617ZM15.9982 39.9736C16.0257 18.4616 33.4201 1.02961 54.8856 1.00201H369.384C390.85 1.02961 408.244 18.4616 408.272 39.9736V268.644C408.244 290.156 390.85 307.588 369.384 307.615H54.8856C33.4201 307.588 16.0257 290.156 15.9982 268.644V39.9736Z" fill="#4D8DFF"/>
<g opacity="0.3">
<rect x="140.767" y="101.202" width="55.8965" height="44.0882" rx="6" transform="rotate(180 140.767 101.202)" fill="#4D8DFF"/>
<rect x="214.63" y="101.202" width="55.8965" height="44.0882" rx="6" transform="rotate(180 214.63 101.202)" fill="#4D8DFF"/>
<rect x="289.492" y="101.202" width="55.8965" height="44.0882" rx="6" transform="rotate(180 289.492 101.202)" fill="#4D8DFF"/>
<rect x="363.355" y="101.202" width="55.8965" height="44.0882" rx="6" transform="rotate(180 363.355 101.202)" fill="#4D8DFF"/>
</g>
<g opacity="0.3">
<rect x="140.767" y="176.353" width="55.8965" height="44.0882" rx="6" transform="rotate(180 140.767 176.353)" fill="#4D8DFF"/>
<rect x="214.63" y="176.353" width="55.8965" height="44.0882" rx="6" transform="rotate(180 214.63 176.353)" fill="#4D8DFF"/>
<rect x="289.492" y="176.353" width="55.8965" height="44.0882" rx="6" transform="rotate(180 289.492 176.353)" fill="#4D8DFF"/>
<rect x="363.355" y="176.353" width="55.8965" height="44.0882" rx="6" transform="rotate(180 363.355 176.353)" fill="#4D8DFF"/>
</g>
<g opacity="0.3">
<rect x="140.767" y="251.503" width="55.8965" height="44.0882" rx="6" transform="rotate(180 140.767 251.503)" fill="#4D8DFF"/>
<rect x="214.63" y="251.503" width="55.8965" height="44.0882" rx="6" transform="rotate(180 214.63 251.503)" fill="#4D8DFF"/>
<rect x="289.492" y="251.503" width="55.8965" height="44.0882" rx="6" transform="rotate(180 289.492 251.503)" fill="#4D8DFF"/>
<rect x="363.355" y="251.503" width="55.8965" height="44.0882" rx="6" transform="rotate(180 363.355 251.503)" fill="#4D8DFF"/>
</g>
<rect x="296.479" y="94.1885" width="55.8965" height="44.0882" rx="6" transform="rotate(180 296.479 94.1885)" fill="#4D8DFF"/>
<rect x="296.479" y="244.489" width="55.8965" height="44.0882" rx="6" transform="rotate(180 296.479 244.489)" fill="#FF4E4A"/>
<rect x="147.754" y="169.339" width="55.8965" height="44.0882" rx="6" transform="rotate(180 147.754 169.339)" fill="#FFC84D"/>
<path d="M430.231 149.299C428.523 160.263 425.208 219.714 426.564 233.294C427.921 246.875 361.27 250.999 370.16 235.859C379.05 220.72 372.722 170.474 372.722 170.474L430.231 149.299Z" fill="#FFAD69"/>
<path d="M426.238 150.301L373.336 169.617C375.317 186.147 375.788 202.823 374.743 219.439C396.547 210.458 391.724 192.195 391.724 182.361C391.724 173.43 426.289 152.006 426.238 150.301Z" fill="#D88344"/>
<path d="M356.567 153.307L348.383 171.208L358.364 175.351L356.567 153.307Z" fill="#D88344"/>
<path d="M356.599 146.908C351.597 180.696 343.394 214.383 384.21 208.811C425.026 203.238 431.328 150.824 431.228 140.883C430.578 88.067 366.203 80.5362 356.599 146.908Z" fill="#FFAD69"/>
<path d="M436.321 110.043C438.429 108.948 440.261 107.382 441.675 105.466L439.573 104.057C438.296 105.779 436.562 107.104 434.569 107.88C434.596 107.528 434.596 107.175 434.569 106.824C434.569 93.1421 371.219 97.0655 360.76 109.288C354.556 116.532 361.161 118.443 371.869 118.091C371.074 118.706 370.481 119.547 370.168 120.505C363.112 155.263 396.439 189.467 400.192 192.385H427.413C427.413 192.385 455.936 122.819 436.321 110.043Z" fill="#232323"/>
<path d="M518.951 392.752C515.378 376.647 496.766 306.96 481.975 273.547L444.205 281.674C444.205 281.674 468.574 364.054 481.528 394.809C478.501 411.365 463.214 488.376 453.784 509.899C449.615 519.933 465.398 523.797 469.22 518.98C473.041 514.164 516.42 426.065 518.852 398.571C518.852 397.969 518.852 397.468 518.852 396.916C519.1 395.541 519.133 394.136 518.951 392.752Z" fill="#FFAD69"/>
<path d="M462.109 239.064C482.116 254.78 513.078 321.607 513.078 321.607L447.554 338.677C447.554 338.677 409.439 197.693 462.109 239.064Z" fill="#E5AA33"/>
<path d="M494.113 501.739C483.467 511.203 471.947 519.619 459.711 526.872C416.584 553.161 363.137 569.095 307.496 582.164C307.446 581.512 307.446 580.856 307.496 580.204C309.291 549.089 312.482 513.551 317.467 490.982L460.11 493.847L493.814 494.551C493.814 496.26 494.113 498.673 494.113 501.739Z" fill="#232323"/>
<path d="M414.556 223.57C453.808 224.87 467.109 238.124 473.86 261.081C481.56 287.088 495.111 444.382 495.111 496.897C495.111 496.897 377.553 505.249 312.449 494.546C332.851 425.577 335.051 301.592 335.501 264.481C335.801 236.924 364.753 221.919 414.556 223.57Z" fill="#FFC84D"/>
<path fill-rule="evenodd" clip-rule="evenodd" d="M419.648 250.981C420.356 251.947 421.478 252.513 422.668 252.505L423.272 252.302C424.623 252.129 425.777 251.237 426.293 249.965L432.031 235.54C432.414 234.381 432.23 233.107 431.536 232.106C430.841 231.105 429.718 230.495 428.507 230.461H412.047C410.617 230.461 409.31 231.276 408.67 232.567C408.031 233.857 408.169 235.402 409.027 236.556L419.648 250.981ZM410.46 234.181C410.676 233.735 411.127 233.456 411.617 233.467H428.007C428.43 233.462 428.826 233.673 429.063 234.028C429.29 234.403 429.29 234.876 429.063 235.251L423.331 249.677C423.179 250.123 422.788 250.44 422.326 250.493C421.878 250.545 421.437 250.351 421.169 249.983L410.46 235.506C410.204 235.103 410.204 234.584 410.46 234.181Z" fill="white"/>
<path d="M335.353 273.796C335.054 292.051 334.356 321.169 332.412 353.707C349.011 333.591 365.312 309.804 366.259 291.951C367.605 267.409 353.797 265.9 335.353 273.796Z" fill="#E5AA33"/>
<path d="M357.366 281.924L337.452 248.564C337.452 248.564 282.689 288.345 253.266 312.975C238.729 287.191 213.886 240.488 208.46 222.679C211.461 217.194 213.594 211.27 214.782 205.122C214.812 205.006 214.812 204.886 214.782 204.77C214.782 204.77 214.782 204.319 214.782 204.118C214.804 203.818 214.804 203.516 214.782 203.215C214.782 202.513 214.782 201.961 214.782 201.51C214.782 193.433 211.447 188.467 212.891 178.233C213.886 171.06 205.771 173.518 204.178 178.233L203.531 182.447C201.49 177.431 189.193 147.984 184.513 147.332C179.834 146.68 182.771 154.606 185.658 162.381C186.903 165.843 187.849 168.552 188.645 170.96C181.775 172.565 175.701 184.404 174.755 189.37C173.81 194.336 186.256 222.027 189.691 227.044C189.957 227.379 190.277 227.667 190.637 227.896C193.176 242.645 215.529 329.128 230.863 349.796C240.521 362.588 252.868 361.585 260.087 354.813C277.81 343.425 332.275 305.702 357.366 281.924Z" fill="#FFAD69"/>
<path d="M391.213 248.803C389.217 285.593 321.336 348.697 321.336 348.697L283.503 286.546C283.503 286.546 394.907 181.89 391.213 248.803Z" fill="#FFC84D"/>
<path d="M370.82 157.243C369.279 166.132 367.019 174.971 375.495 174.314C383.972 173.658 386.13 159.819 386.284 157.192C387.003 143.05 373.851 139.666 370.82 157.243Z" fill="#FFAD69"/>
</svg>
