<svg width="50" height="50" viewBox="0 0 50 50" fill="none" xmlns="http://www.w3.org/2000/svg">
<g clip-path="url(#clip0_41114_57)">
<rect x="0.00012207" width="50" height="50" rx="15" fill="#4DADF7"/>
<path d="M30.5716 18.4286C30.5716 19.9821 30.2531 21.3571 29.6162 22.5536C28.9852 23.744 28.1936 24.6548 27.2412 25.2857C28.1936 25.9167 28.9852 26.8304 29.6162 28.0268C30.2531 29.2173 30.5716 30.5893 30.5716 32.1429H31.4287C31.512 32.1429 31.5805 32.1696 31.6341 32.2232C31.6876 32.2768 31.7144 32.3452 31.7144 32.4286V33C31.7144 33.0833 31.6876 33.1518 31.6341 33.2054C31.5805 33.2589 31.512 33.2857 31.4287 33.2857H18.2858C18.2025 33.2857 18.1341 33.2589 18.0805 33.2054C18.0269 33.1518 18.0001 33.0833 18.0001 33V32.4286C18.0001 32.3452 18.0269 32.2768 18.0805 32.2232C18.1341 32.1696 18.2025 32.1429 18.2858 32.1429H19.143C19.143 30.5893 19.4585 29.2173 20.0894 28.0268C20.7263 26.8304 21.521 25.9167 22.4733 25.2857C21.521 24.6548 20.7263 23.744 20.0894 22.5536C19.4585 21.3571 19.143 19.9821 19.143 18.4286H18.2858C18.2025 18.4286 18.1341 18.4018 18.0805 18.3482C18.0269 18.2946 18.0001 18.2262 18.0001 18.1429V17.5714C18.0001 17.4881 18.0269 17.4196 18.0805 17.3661C18.1341 17.3125 18.2025 17.2857 18.2858 17.2857H31.4287C31.512 17.2857 31.5805 17.3125 31.6341 17.3661C31.6876 17.4196 31.7144 17.4881 31.7144 17.5714V18.1429C31.7144 18.2262 31.6876 18.2946 31.6341 18.3482C31.5805 18.4018 31.512 18.4286 31.4287 18.4286H30.5716ZM29.4287 18.4286H20.2858C20.2858 19.6548 20.5388 20.7976 21.0448 21.8571H28.6698C29.1757 20.7976 29.4287 19.6548 29.4287 18.4286ZM28.9198 29.2857C28.5983 28.4464 28.1638 27.7292 27.6162 27.1339C27.0745 26.5327 26.4971 26.1071 25.8841 25.8571H23.8305C23.2174 26.1071 22.637 26.5327 22.0894 27.1339C21.5477 27.7292 21.1162 28.4464 20.7948 29.2857H28.9198Z" fill="white"/>
</g>
<defs>
<clipPath id="clip0_41114_57">
<rect width="50" height="50" fill="white"/>
</clipPath>
</defs>
</svg>
